G04 #@! TF.FileFunction,Soldermask,Top*
%FSLAX46Y46*%
G04 Gerber Fmt 4.6, Leading zero omitted, Abs format (unit mm)*
G04 Created by KiCad (PCBNEW 4.0.7) date 2018 April 02, Monday 17:07:15*
%MOMM*%
%LPD*%
G01*
G04 APERTURE LIST*
%ADD10C,0.100000*%
%ADD11O,2.100000X2.100000*%
%ADD12R,2.400000X4.200000*%
%ADD13R,2.400000X1.900000*%
%ADD14R,1.700000X1.900000*%
G04 APERTURE END LIST*
D10*
X152781000Y-100726857D02*
X152800048Y-100745905D01*
X152781000Y-100764952D01*
X152761952Y-100745905D01*
X152781000Y-100726857D01*
X152781000Y-100764952D01*
X152733357Y-101346000D02*
X152752405Y-101326952D01*
X152771452Y-101346000D01*
X152752405Y-101365048D01*
X152733357Y-101346000D01*
X152771452Y-101346000D01*
X152987357Y-100330000D02*
X153006405Y-100310952D01*
X153025452Y-100330000D01*
X153006405Y-100349048D01*
X152987357Y-100330000D01*
X153025452Y-100330000D01*
X153177857Y-99885500D02*
X153196905Y-99866452D01*
X153215952Y-99885500D01*
X153196905Y-99904548D01*
X153177857Y-99885500D01*
X153215952Y-99885500D01*
X153241357Y-99060000D02*
X153260405Y-99040952D01*
X153279452Y-99060000D01*
X153260405Y-99079048D01*
X153241357Y-99060000D01*
X153279452Y-99060000D01*
X153685857Y-99187000D02*
X153704905Y-99167952D01*
X153723952Y-99187000D01*
X153704905Y-99206048D01*
X153685857Y-99187000D01*
X153723952Y-99187000D01*
X153622357Y-99822000D02*
X153641405Y-99802952D01*
X153660452Y-99822000D01*
X153641405Y-99841048D01*
X153622357Y-99822000D01*
X153660452Y-99822000D01*
X153691452Y-102518381D02*
X153291452Y-102468381D01*
X153691452Y-102289809D02*
X153462881Y-102432667D01*
X153291452Y-102239809D02*
X153520024Y-102496952D01*
X153424786Y-101913619D02*
X153691452Y-101946952D01*
X153424786Y-102085048D02*
X153634310Y-102111238D01*
X153672405Y-102096952D01*
X153691452Y-102061238D01*
X153691452Y-102004095D01*
X153672405Y-101963619D01*
X153653357Y-101942190D01*
X153691452Y-101699333D02*
X153672405Y-101735047D01*
X153634310Y-101749333D01*
X153291452Y-101706476D01*
X153691452Y-101489809D02*
X153672405Y-101525523D01*
X153634310Y-101539809D01*
X153291452Y-101496952D01*
X153672405Y-101182666D02*
X153691452Y-101223142D01*
X153691452Y-101299333D01*
X153672405Y-101335047D01*
X153634310Y-101349333D01*
X153481929Y-101330286D01*
X153443833Y-101306476D01*
X153424786Y-101266000D01*
X153424786Y-101189809D01*
X153443833Y-101154095D01*
X153481929Y-101139809D01*
X153520024Y-101144570D01*
X153558119Y-101339809D01*
X153424786Y-100961238D02*
X153691452Y-100994571D01*
X153462881Y-100966000D02*
X153443833Y-100944571D01*
X153424786Y-100904095D01*
X153424786Y-100846952D01*
X153443833Y-100811238D01*
X153481929Y-100796952D01*
X153691452Y-100823142D01*
X154391452Y-101680285D02*
X154200976Y-101789809D01*
X154391452Y-101908857D02*
X153991452Y-101858857D01*
X153991452Y-101706476D01*
X154010500Y-101670762D01*
X154029548Y-101654095D01*
X154067643Y-101639809D01*
X154124786Y-101646952D01*
X154162881Y-101670762D01*
X154181929Y-101692191D01*
X154200976Y-101732666D01*
X154200976Y-101885047D01*
X154391452Y-101451714D02*
X154372405Y-101487428D01*
X154353357Y-101504095D01*
X154315262Y-101518381D01*
X154200976Y-101504095D01*
X154162881Y-101480286D01*
X154143833Y-101458857D01*
X154124786Y-101418381D01*
X154124786Y-101361238D01*
X154143833Y-101325524D01*
X154162881Y-101308857D01*
X154200976Y-101294571D01*
X154315262Y-101308857D01*
X154353357Y-101332666D01*
X154372405Y-101354095D01*
X154391452Y-101394571D01*
X154391452Y-101451714D01*
X154391452Y-101146952D02*
X153991452Y-101096952D01*
X154143833Y-101116000D02*
X154124786Y-101075524D01*
X154124786Y-100999333D01*
X154143833Y-100963619D01*
X154162881Y-100946952D01*
X154200976Y-100932666D01*
X154315262Y-100946952D01*
X154353357Y-100970761D01*
X154372405Y-100992190D01*
X154391452Y-101032666D01*
X154391452Y-101108857D01*
X154372405Y-101144571D01*
X154391452Y-100727904D02*
X154372405Y-100763618D01*
X154353357Y-100780285D01*
X154315262Y-100794571D01*
X154200976Y-100780285D01*
X154162881Y-100756476D01*
X154143833Y-100735047D01*
X154124786Y-100694571D01*
X154124786Y-100637428D01*
X154143833Y-100601714D01*
X154162881Y-100585047D01*
X154200976Y-100570761D01*
X154315262Y-100585047D01*
X154353357Y-100608856D01*
X154372405Y-100630285D01*
X154391452Y-100670761D01*
X154391452Y-100727904D01*
X154124786Y-100446952D02*
X154124786Y-100294571D01*
X153991452Y-100373142D02*
X154334310Y-100415999D01*
X154372405Y-100401713D01*
X154391452Y-100365999D01*
X154391452Y-100327904D01*
X154391452Y-100194571D02*
X154124786Y-100161238D01*
X153991452Y-100144571D02*
X154010500Y-100166000D01*
X154029548Y-100149333D01*
X154010500Y-100127904D01*
X153991452Y-100144571D01*
X154029548Y-100149333D01*
X154372405Y-99830285D02*
X154391452Y-99870762D01*
X154391452Y-99946952D01*
X154372405Y-99982666D01*
X154353357Y-99999333D01*
X154315262Y-100013619D01*
X154200976Y-99999333D01*
X154162881Y-99975524D01*
X154143833Y-99954095D01*
X154124786Y-99913619D01*
X154124786Y-99837429D01*
X154143833Y-99801714D01*
X154372405Y-99677905D02*
X154391452Y-99642190D01*
X154391452Y-99566000D01*
X154372405Y-99525524D01*
X154334310Y-99501714D01*
X154315262Y-99499333D01*
X154277167Y-99513619D01*
X154258119Y-99549333D01*
X154258119Y-99606476D01*
X154239071Y-99642190D01*
X154200976Y-99656476D01*
X154181929Y-99654096D01*
X154143833Y-99630286D01*
X154124786Y-99589810D01*
X154124786Y-99532667D01*
X154143833Y-99496953D01*
D11*
X143764000Y-91059000D03*
X141224000Y-91059000D03*
X143764000Y-93599000D03*
X141224000Y-93599000D03*
X143764000Y-96139000D03*
X141224000Y-96139000D03*
X143764000Y-98679000D03*
X141224000Y-98679000D03*
D12*
X146964000Y-94869000D03*
D13*
X153264000Y-94869000D03*
X153264000Y-92569000D03*
X153264000Y-97169000D03*
D11*
X141224000Y-101219000D03*
X143764000Y-101219000D03*
X146304000Y-101219000D03*
X148844000Y-101219000D03*
X151384000Y-101219000D03*
X141224000Y-88519000D03*
X143764000Y-88519000D03*
X146304000Y-88519000D03*
X148844000Y-88519000D03*
X151384000Y-88519000D03*
D14*
X138811000Y-91139000D03*
X138811000Y-88439000D03*
X138811000Y-98599000D03*
X138811000Y-101299000D03*
M02*
