G04 #@! TF.FileFunction,Copper,L1,Top,Signal*
%FSLAX46Y46*%
G04 Gerber Fmt 4.6, Leading zero omitted, Abs format (unit mm)*
G04 Created by KiCad (PCBNEW 4.0.7) date 2018 April 02, Monday 17:07:15*
%MOMM*%
%LPD*%
G01*
G04 APERTURE LIST*
%ADD10C,0.100000*%
%ADD11O,1.700000X1.700000*%
%ADD12R,2.000000X3.800000*%
%ADD13R,2.000000X1.500000*%
%ADD14R,1.300000X1.500000*%
%ADD15C,0.600000*%
%ADD16C,0.750000*%
%ADD17C,0.250000*%
%ADD18C,0.254000*%
G04 APERTURE END LIST*
D10*
D11*
X143764000Y-91059000D03*
X141224000Y-91059000D03*
X143764000Y-93599000D03*
X141224000Y-93599000D03*
X143764000Y-96139000D03*
X141224000Y-96139000D03*
X143764000Y-98679000D03*
X141224000Y-98679000D03*
D12*
X146964000Y-94869000D03*
D13*
X153264000Y-94869000D03*
X153264000Y-92569000D03*
X153264000Y-97169000D03*
D11*
X141224000Y-101219000D03*
X143764000Y-101219000D03*
X146304000Y-101219000D03*
X148844000Y-101219000D03*
X151384000Y-101219000D03*
X141224000Y-88519000D03*
X143764000Y-88519000D03*
X146304000Y-88519000D03*
X148844000Y-88519000D03*
X151384000Y-88519000D03*
D14*
X138811000Y-91139000D03*
X138811000Y-88439000D03*
X138811000Y-98599000D03*
X138811000Y-101299000D03*
D15*
X150876000Y-92583000D03*
X148463000Y-90297000D03*
X148971000Y-90805000D03*
X149479000Y-90297000D03*
X149987000Y-90805000D03*
X150495000Y-90297000D03*
X151003000Y-90805000D03*
X151511000Y-90297000D03*
X152019000Y-90805000D03*
X146939000Y-90932000D03*
X148463000Y-99441000D03*
X148971000Y-98933000D03*
X149479000Y-99441000D03*
X149987000Y-98933000D03*
X150495000Y-99441000D03*
X151003000Y-98933000D03*
X151511000Y-99441000D03*
X152019000Y-98933000D03*
X150876000Y-97155000D03*
X146939000Y-98933000D03*
D16*
X153264000Y-92569000D02*
X153264000Y-90399000D01*
X153264000Y-90399000D02*
X151384000Y-88519000D01*
X153264000Y-92569000D02*
X150890000Y-92569000D01*
X150890000Y-92569000D02*
X150876000Y-92583000D01*
D17*
X151364000Y-88539000D02*
X151384000Y-88519000D01*
X146939000Y-90932000D02*
X147828000Y-90932000D01*
X148971000Y-90805000D02*
X149479000Y-90297000D01*
X149987000Y-90805000D02*
X150495000Y-90297000D01*
X151003000Y-90805000D02*
X151511000Y-90297000D01*
X147828000Y-90932000D02*
X148463000Y-90297000D01*
X138811000Y-101299000D02*
X138811000Y-102616000D01*
X151384000Y-102489000D02*
X151384000Y-101219000D01*
X150749000Y-103124000D02*
X151384000Y-102489000D01*
X139319000Y-103124000D02*
X150749000Y-103124000D01*
X138811000Y-102616000D02*
X139319000Y-103124000D01*
X153264000Y-97169000D02*
X153264000Y-97688000D01*
X153264000Y-97688000D02*
X152019000Y-98933000D01*
X149479000Y-99441000D02*
X148971000Y-98933000D01*
X150495000Y-99441000D02*
X149987000Y-98933000D01*
X151511000Y-99441000D02*
X151003000Y-98933000D01*
D16*
X150890000Y-97169000D02*
X153264000Y-97169000D01*
X150890000Y-97169000D02*
X150876000Y-97155000D01*
D17*
X153264000Y-97169000D02*
X153264000Y-97414000D01*
X151364000Y-101199000D02*
X151384000Y-101219000D01*
X138811000Y-88439000D02*
X138811000Y-88519000D01*
X138811000Y-88519000D02*
X140081000Y-89789000D01*
X140081000Y-89789000D02*
X142494000Y-89789000D01*
X142494000Y-89789000D02*
X143764000Y-91059000D01*
D16*
X146964000Y-94869000D02*
X153264000Y-94869000D01*
X143764000Y-91059000D02*
X145542000Y-91059000D01*
X146964000Y-92481000D02*
X146964000Y-94869000D01*
X145542000Y-91059000D02*
X146964000Y-92481000D01*
X146964000Y-94869000D02*
X146964000Y-98908000D01*
X146964000Y-98908000D02*
X146939000Y-98933000D01*
D17*
X138764000Y-88519000D02*
X138684000Y-88439000D01*
X138684000Y-98599000D02*
X138684000Y-98171000D01*
X138684000Y-98171000D02*
X139192000Y-97663000D01*
X139192000Y-97663000D02*
X139446000Y-97409000D01*
X139446000Y-97409000D02*
X139446000Y-92329000D01*
X139446000Y-92329000D02*
X138684000Y-91567000D01*
X138684000Y-91567000D02*
X138684000Y-91139000D01*
D18*
G36*
X154865000Y-87162092D02*
X154865000Y-90551000D01*
X154919046Y-90822705D01*
X155072954Y-91053046D01*
X155246000Y-91226092D01*
X155246000Y-98892908D01*
X155072954Y-99065954D01*
X154919046Y-99296295D01*
X154865000Y-99568000D01*
X154865000Y-102575908D01*
X154391908Y-103049000D01*
X138978092Y-103049000D01*
X138569171Y-102640079D01*
X138684000Y-102525250D01*
X138684000Y-101426000D01*
X138664000Y-101426000D01*
X138664000Y-101172000D01*
X138684000Y-101172000D01*
X138684000Y-101152000D01*
X138938000Y-101152000D01*
X138938000Y-101172000D01*
X138958000Y-101172000D01*
X138958000Y-101426000D01*
X138938000Y-101426000D01*
X138938000Y-102525250D01*
X139096750Y-102684000D01*
X139587310Y-102684000D01*
X139820699Y-102587327D01*
X139999327Y-102408698D01*
X140094419Y-102179126D01*
X140173946Y-102298147D01*
X140655715Y-102620054D01*
X141224000Y-102733093D01*
X141792285Y-102620054D01*
X142274054Y-102298147D01*
X142494000Y-101968974D01*
X142713946Y-102298147D01*
X143195715Y-102620054D01*
X143764000Y-102733093D01*
X144332285Y-102620054D01*
X144814054Y-102298147D01*
X145034000Y-101968974D01*
X145253946Y-102298147D01*
X145735715Y-102620054D01*
X146304000Y-102733093D01*
X146872285Y-102620054D01*
X147354054Y-102298147D01*
X147574000Y-101968974D01*
X147793946Y-102298147D01*
X148275715Y-102620054D01*
X148844000Y-102733093D01*
X149412285Y-102620054D01*
X149894054Y-102298147D01*
X150121702Y-101957447D01*
X150188817Y-102100358D01*
X150617076Y-102490645D01*
X151027110Y-102660476D01*
X151257000Y-102539155D01*
X151257000Y-101346000D01*
X151511000Y-101346000D01*
X151511000Y-102539155D01*
X151740890Y-102660476D01*
X152150924Y-102490645D01*
X152579183Y-102100358D01*
X152825486Y-101575892D01*
X152704819Y-101346000D01*
X151511000Y-101346000D01*
X151257000Y-101346000D01*
X151237000Y-101346000D01*
X151237000Y-101092000D01*
X151257000Y-101092000D01*
X151257000Y-99898845D01*
X151511000Y-99898845D01*
X151511000Y-101092000D01*
X152704819Y-101092000D01*
X152825486Y-100862108D01*
X152579183Y-100337642D01*
X152150924Y-99947355D01*
X151740890Y-99777524D01*
X151511000Y-99898845D01*
X151257000Y-99898845D01*
X151027110Y-99777524D01*
X150617076Y-99947355D01*
X150188817Y-100337642D01*
X150121702Y-100480553D01*
X149894054Y-100139853D01*
X149412285Y-99817946D01*
X148844000Y-99704907D01*
X148275715Y-99817946D01*
X147793946Y-100139853D01*
X147574000Y-100469026D01*
X147354054Y-100139853D01*
X147031812Y-99924538D01*
X147325510Y-99866118D01*
X147653178Y-99647178D01*
X147678178Y-99622178D01*
X147897118Y-99294510D01*
X147974000Y-98908000D01*
X147974000Y-97454750D01*
X151629000Y-97454750D01*
X151629000Y-98045310D01*
X151725673Y-98278699D01*
X151904302Y-98457327D01*
X152137691Y-98554000D01*
X152978250Y-98554000D01*
X153137000Y-98395250D01*
X153137000Y-97296000D01*
X153391000Y-97296000D01*
X153391000Y-98395250D01*
X153549750Y-98554000D01*
X154390309Y-98554000D01*
X154623698Y-98457327D01*
X154802327Y-98278699D01*
X154899000Y-98045310D01*
X154899000Y-97454750D01*
X154740250Y-97296000D01*
X153391000Y-97296000D01*
X153137000Y-97296000D01*
X151787750Y-97296000D01*
X151629000Y-97454750D01*
X147974000Y-97454750D01*
X147974000Y-97414558D01*
X148199317Y-97372162D01*
X148415441Y-97233090D01*
X148560431Y-97020890D01*
X148611440Y-96769000D01*
X148611440Y-95879000D01*
X151676721Y-95879000D01*
X151766482Y-96018492D01*
X151725673Y-96059301D01*
X151629000Y-96292690D01*
X151629000Y-96883250D01*
X151787750Y-97042000D01*
X153137000Y-97042000D01*
X153137000Y-97022000D01*
X153391000Y-97022000D01*
X153391000Y-97042000D01*
X154740250Y-97042000D01*
X154899000Y-96883250D01*
X154899000Y-96292690D01*
X154802327Y-96059301D01*
X154760366Y-96017340D01*
X154860431Y-95870890D01*
X154911440Y-95619000D01*
X154911440Y-94119000D01*
X154867162Y-93883683D01*
X154760241Y-93717523D01*
X154860431Y-93570890D01*
X154911440Y-93319000D01*
X154911440Y-91819000D01*
X154867162Y-91583683D01*
X154728090Y-91367559D01*
X154515890Y-91222569D01*
X154274000Y-91173585D01*
X154274000Y-90399000D01*
X154210515Y-90079839D01*
X154197118Y-90012489D01*
X154082532Y-89841000D01*
X153978178Y-89684822D01*
X153978175Y-89684820D01*
X152864429Y-88571073D01*
X152869000Y-88548093D01*
X152869000Y-88489907D01*
X152755961Y-87921622D01*
X152434054Y-87439853D01*
X151952285Y-87117946D01*
X151384000Y-87004907D01*
X150815715Y-87117946D01*
X150333946Y-87439853D01*
X150114000Y-87769026D01*
X149894054Y-87439853D01*
X149412285Y-87117946D01*
X148844000Y-87004907D01*
X148275715Y-87117946D01*
X147793946Y-87439853D01*
X147574000Y-87769026D01*
X147354054Y-87439853D01*
X146872285Y-87117946D01*
X146304000Y-87004907D01*
X145735715Y-87117946D01*
X145253946Y-87439853D01*
X145034000Y-87769026D01*
X144814054Y-87439853D01*
X144332285Y-87117946D01*
X143764000Y-87004907D01*
X143195715Y-87117946D01*
X142713946Y-87439853D01*
X142486298Y-87780553D01*
X142419183Y-87637642D01*
X141990924Y-87247355D01*
X141580890Y-87077524D01*
X141351000Y-87198845D01*
X141351000Y-88392000D01*
X141371000Y-88392000D01*
X141371000Y-88646000D01*
X141351000Y-88646000D01*
X141351000Y-88666000D01*
X141097000Y-88666000D01*
X141097000Y-88646000D01*
X141077000Y-88646000D01*
X141077000Y-88392000D01*
X141097000Y-88392000D01*
X141097000Y-87198845D01*
X140867110Y-87077524D01*
X140457076Y-87247355D01*
X140088536Y-87583218D01*
X140064162Y-87453683D01*
X139925090Y-87237559D01*
X139712890Y-87092569D01*
X139461000Y-87041560D01*
X138625532Y-87041560D01*
X138978092Y-86689000D01*
X154391908Y-86689000D01*
X154865000Y-87162092D01*
X154865000Y-87162092D01*
G37*
X154865000Y-87162092D02*
X154865000Y-90551000D01*
X154919046Y-90822705D01*
X155072954Y-91053046D01*
X155246000Y-91226092D01*
X155246000Y-98892908D01*
X155072954Y-99065954D01*
X154919046Y-99296295D01*
X154865000Y-99568000D01*
X154865000Y-102575908D01*
X154391908Y-103049000D01*
X138978092Y-103049000D01*
X138569171Y-102640079D01*
X138684000Y-102525250D01*
X138684000Y-101426000D01*
X138664000Y-101426000D01*
X138664000Y-101172000D01*
X138684000Y-101172000D01*
X138684000Y-101152000D01*
X138938000Y-101152000D01*
X138938000Y-101172000D01*
X138958000Y-101172000D01*
X138958000Y-101426000D01*
X138938000Y-101426000D01*
X138938000Y-102525250D01*
X139096750Y-102684000D01*
X139587310Y-102684000D01*
X139820699Y-102587327D01*
X139999327Y-102408698D01*
X140094419Y-102179126D01*
X140173946Y-102298147D01*
X140655715Y-102620054D01*
X141224000Y-102733093D01*
X141792285Y-102620054D01*
X142274054Y-102298147D01*
X142494000Y-101968974D01*
X142713946Y-102298147D01*
X143195715Y-102620054D01*
X143764000Y-102733093D01*
X144332285Y-102620054D01*
X144814054Y-102298147D01*
X145034000Y-101968974D01*
X145253946Y-102298147D01*
X145735715Y-102620054D01*
X146304000Y-102733093D01*
X146872285Y-102620054D01*
X147354054Y-102298147D01*
X147574000Y-101968974D01*
X147793946Y-102298147D01*
X148275715Y-102620054D01*
X148844000Y-102733093D01*
X149412285Y-102620054D01*
X149894054Y-102298147D01*
X150121702Y-101957447D01*
X150188817Y-102100358D01*
X150617076Y-102490645D01*
X151027110Y-102660476D01*
X151257000Y-102539155D01*
X151257000Y-101346000D01*
X151511000Y-101346000D01*
X151511000Y-102539155D01*
X151740890Y-102660476D01*
X152150924Y-102490645D01*
X152579183Y-102100358D01*
X152825486Y-101575892D01*
X152704819Y-101346000D01*
X151511000Y-101346000D01*
X151257000Y-101346000D01*
X151237000Y-101346000D01*
X151237000Y-101092000D01*
X151257000Y-101092000D01*
X151257000Y-99898845D01*
X151511000Y-99898845D01*
X151511000Y-101092000D01*
X152704819Y-101092000D01*
X152825486Y-100862108D01*
X152579183Y-100337642D01*
X152150924Y-99947355D01*
X151740890Y-99777524D01*
X151511000Y-99898845D01*
X151257000Y-99898845D01*
X151027110Y-99777524D01*
X150617076Y-99947355D01*
X150188817Y-100337642D01*
X150121702Y-100480553D01*
X149894054Y-100139853D01*
X149412285Y-99817946D01*
X148844000Y-99704907D01*
X148275715Y-99817946D01*
X147793946Y-100139853D01*
X147574000Y-100469026D01*
X147354054Y-100139853D01*
X147031812Y-99924538D01*
X147325510Y-99866118D01*
X147653178Y-99647178D01*
X147678178Y-99622178D01*
X147897118Y-99294510D01*
X147974000Y-98908000D01*
X147974000Y-97454750D01*
X151629000Y-97454750D01*
X151629000Y-98045310D01*
X151725673Y-98278699D01*
X151904302Y-98457327D01*
X152137691Y-98554000D01*
X152978250Y-98554000D01*
X153137000Y-98395250D01*
X153137000Y-97296000D01*
X153391000Y-97296000D01*
X153391000Y-98395250D01*
X153549750Y-98554000D01*
X154390309Y-98554000D01*
X154623698Y-98457327D01*
X154802327Y-98278699D01*
X154899000Y-98045310D01*
X154899000Y-97454750D01*
X154740250Y-97296000D01*
X153391000Y-97296000D01*
X153137000Y-97296000D01*
X151787750Y-97296000D01*
X151629000Y-97454750D01*
X147974000Y-97454750D01*
X147974000Y-97414558D01*
X148199317Y-97372162D01*
X148415441Y-97233090D01*
X148560431Y-97020890D01*
X148611440Y-96769000D01*
X148611440Y-95879000D01*
X151676721Y-95879000D01*
X151766482Y-96018492D01*
X151725673Y-96059301D01*
X151629000Y-96292690D01*
X151629000Y-96883250D01*
X151787750Y-97042000D01*
X153137000Y-97042000D01*
X153137000Y-97022000D01*
X153391000Y-97022000D01*
X153391000Y-97042000D01*
X154740250Y-97042000D01*
X154899000Y-96883250D01*
X154899000Y-96292690D01*
X154802327Y-96059301D01*
X154760366Y-96017340D01*
X154860431Y-95870890D01*
X154911440Y-95619000D01*
X154911440Y-94119000D01*
X154867162Y-93883683D01*
X154760241Y-93717523D01*
X154860431Y-93570890D01*
X154911440Y-93319000D01*
X154911440Y-91819000D01*
X154867162Y-91583683D01*
X154728090Y-91367559D01*
X154515890Y-91222569D01*
X154274000Y-91173585D01*
X154274000Y-90399000D01*
X154210515Y-90079839D01*
X154197118Y-90012489D01*
X154082532Y-89841000D01*
X153978178Y-89684822D01*
X153978175Y-89684820D01*
X152864429Y-88571073D01*
X152869000Y-88548093D01*
X152869000Y-88489907D01*
X152755961Y-87921622D01*
X152434054Y-87439853D01*
X151952285Y-87117946D01*
X151384000Y-87004907D01*
X150815715Y-87117946D01*
X150333946Y-87439853D01*
X150114000Y-87769026D01*
X149894054Y-87439853D01*
X149412285Y-87117946D01*
X148844000Y-87004907D01*
X148275715Y-87117946D01*
X147793946Y-87439853D01*
X147574000Y-87769026D01*
X147354054Y-87439853D01*
X146872285Y-87117946D01*
X146304000Y-87004907D01*
X145735715Y-87117946D01*
X145253946Y-87439853D01*
X145034000Y-87769026D01*
X144814054Y-87439853D01*
X144332285Y-87117946D01*
X143764000Y-87004907D01*
X143195715Y-87117946D01*
X142713946Y-87439853D01*
X142486298Y-87780553D01*
X142419183Y-87637642D01*
X141990924Y-87247355D01*
X141580890Y-87077524D01*
X141351000Y-87198845D01*
X141351000Y-88392000D01*
X141371000Y-88392000D01*
X141371000Y-88646000D01*
X141351000Y-88646000D01*
X141351000Y-88666000D01*
X141097000Y-88666000D01*
X141097000Y-88646000D01*
X141077000Y-88646000D01*
X141077000Y-88392000D01*
X141097000Y-88392000D01*
X141097000Y-87198845D01*
X140867110Y-87077524D01*
X140457076Y-87247355D01*
X140088536Y-87583218D01*
X140064162Y-87453683D01*
X139925090Y-87237559D01*
X139712890Y-87092569D01*
X139461000Y-87041560D01*
X138625532Y-87041560D01*
X138978092Y-86689000D01*
X154391908Y-86689000D01*
X154865000Y-87162092D01*
G36*
X150333946Y-89598147D02*
X150815715Y-89920054D01*
X151384000Y-90033093D01*
X151455513Y-90018868D01*
X152254000Y-90817355D01*
X152254000Y-91173442D01*
X152028683Y-91215838D01*
X151812559Y-91354910D01*
X151673110Y-91559000D01*
X150890000Y-91559000D01*
X150503490Y-91635882D01*
X150175822Y-91854822D01*
X150161822Y-91868822D01*
X149942882Y-92196490D01*
X149866000Y-92583000D01*
X149942882Y-92969510D01*
X150161822Y-93297178D01*
X150489490Y-93516118D01*
X150876000Y-93593000D01*
X150946382Y-93579000D01*
X151676721Y-93579000D01*
X151767759Y-93720477D01*
X151673110Y-93859000D01*
X148611440Y-93859000D01*
X148611440Y-92969000D01*
X148567162Y-92733683D01*
X148428090Y-92517559D01*
X148215890Y-92372569D01*
X147964000Y-92321560D01*
X147942285Y-92321560D01*
X147897118Y-92094490D01*
X147678178Y-91766822D01*
X146256178Y-90344822D01*
X145928510Y-90125882D01*
X145542000Y-90049000D01*
X144869910Y-90049000D01*
X144843147Y-90008946D01*
X144521198Y-89793827D01*
X144814054Y-89598147D01*
X145034000Y-89268974D01*
X145253946Y-89598147D01*
X145735715Y-89920054D01*
X146304000Y-90033093D01*
X146872285Y-89920054D01*
X147354054Y-89598147D01*
X147574000Y-89268974D01*
X147793946Y-89598147D01*
X148275715Y-89920054D01*
X148844000Y-90033093D01*
X149412285Y-89920054D01*
X149894054Y-89598147D01*
X150114000Y-89268974D01*
X150333946Y-89598147D01*
X150333946Y-89598147D01*
G37*
X150333946Y-89598147D02*
X150815715Y-89920054D01*
X151384000Y-90033093D01*
X151455513Y-90018868D01*
X152254000Y-90817355D01*
X152254000Y-91173442D01*
X152028683Y-91215838D01*
X151812559Y-91354910D01*
X151673110Y-91559000D01*
X150890000Y-91559000D01*
X150503490Y-91635882D01*
X150175822Y-91854822D01*
X150161822Y-91868822D01*
X149942882Y-92196490D01*
X149866000Y-92583000D01*
X149942882Y-92969510D01*
X150161822Y-93297178D01*
X150489490Y-93516118D01*
X150876000Y-93593000D01*
X150946382Y-93579000D01*
X151676721Y-93579000D01*
X151767759Y-93720477D01*
X151673110Y-93859000D01*
X148611440Y-93859000D01*
X148611440Y-92969000D01*
X148567162Y-92733683D01*
X148428090Y-92517559D01*
X148215890Y-92372569D01*
X147964000Y-92321560D01*
X147942285Y-92321560D01*
X147897118Y-92094490D01*
X147678178Y-91766822D01*
X146256178Y-90344822D01*
X145928510Y-90125882D01*
X145542000Y-90049000D01*
X144869910Y-90049000D01*
X144843147Y-90008946D01*
X144521198Y-89793827D01*
X144814054Y-89598147D01*
X145034000Y-89268974D01*
X145253946Y-89598147D01*
X145735715Y-89920054D01*
X146304000Y-90033093D01*
X146872285Y-89920054D01*
X147354054Y-89598147D01*
X147574000Y-89268974D01*
X147793946Y-89598147D01*
X148275715Y-89920054D01*
X148844000Y-90033093D01*
X149412285Y-89920054D01*
X149894054Y-89598147D01*
X150114000Y-89268974D01*
X150333946Y-89598147D01*
G36*
X141351000Y-90932000D02*
X141371000Y-90932000D01*
X141371000Y-91186000D01*
X141351000Y-91186000D01*
X141351000Y-91206000D01*
X141097000Y-91206000D01*
X141097000Y-91186000D01*
X141077000Y-91186000D01*
X141077000Y-90932000D01*
X141097000Y-90932000D01*
X141097000Y-90912000D01*
X141351000Y-90912000D01*
X141351000Y-90932000D01*
X141351000Y-90932000D01*
G37*
X141351000Y-90932000D02*
X141371000Y-90932000D01*
X141371000Y-91186000D01*
X141351000Y-91186000D01*
X141351000Y-91206000D01*
X141097000Y-91206000D01*
X141097000Y-91186000D01*
X141077000Y-91186000D01*
X141077000Y-90932000D01*
X141097000Y-90932000D01*
X141097000Y-90912000D01*
X141351000Y-90912000D01*
X141351000Y-90932000D01*
M02*
