G04 #@! TF.FileFunction,Copper,L2,Bot,Signal*
%FSLAX46Y46*%
G04 Gerber Fmt 4.6, Leading zero omitted, Abs format (unit mm)*
G04 Created by KiCad (PCBNEW 4.0.7) date 2018 April 02, Monday 17:07:15*
%MOMM*%
%LPD*%
G01*
G04 APERTURE LIST*
%ADD10C,0.100000*%
%ADD11O,1.700000X1.700000*%
%ADD12R,1.500000X1.250000*%
%ADD13C,0.600000*%
%ADD14C,0.750000*%
%ADD15C,0.250000*%
%ADD16C,0.400000*%
%ADD17C,0.254000*%
G04 APERTURE END LIST*
D10*
D11*
X143764000Y-91059000D03*
X141224000Y-91059000D03*
X143764000Y-93599000D03*
X141224000Y-93599000D03*
X143764000Y-96139000D03*
X141224000Y-96139000D03*
X143764000Y-98679000D03*
X141224000Y-98679000D03*
X141224000Y-101219000D03*
X143764000Y-101219000D03*
X146304000Y-101219000D03*
X148844000Y-101219000D03*
X151384000Y-101219000D03*
X141224000Y-88519000D03*
X143764000Y-88519000D03*
X146304000Y-88519000D03*
X148844000Y-88519000D03*
X151384000Y-88519000D03*
D12*
X146959000Y-97155000D03*
X149459000Y-97155000D03*
X149459000Y-92583000D03*
X146959000Y-92583000D03*
D13*
X150876000Y-92583000D03*
X148463000Y-90297000D03*
X148971000Y-90805000D03*
X149479000Y-90297000D03*
X149987000Y-90805000D03*
X150495000Y-90297000D03*
X151003000Y-90805000D03*
X151511000Y-90297000D03*
X152019000Y-90805000D03*
X146939000Y-90932000D03*
X148463000Y-99441000D03*
X148971000Y-98933000D03*
X149479000Y-99441000D03*
X149987000Y-98933000D03*
X150495000Y-99441000D03*
X151003000Y-98933000D03*
X151511000Y-99441000D03*
X152019000Y-98933000D03*
X150876000Y-97155000D03*
X146939000Y-98933000D03*
D14*
X150876000Y-92583000D02*
X150094000Y-92583000D01*
D15*
X148463000Y-90297000D02*
X148971000Y-90805000D01*
X149479000Y-90297000D02*
X149987000Y-90805000D01*
X150495000Y-90297000D02*
X151003000Y-90805000D01*
X152019000Y-90805000D02*
X151511000Y-90297000D01*
D16*
X146959000Y-90952000D02*
X146939000Y-90932000D01*
X146959000Y-90952000D02*
X146959000Y-92583000D01*
D14*
X141224000Y-91059000D02*
X141224000Y-88519000D01*
D15*
X148971000Y-98933000D02*
X148463000Y-99441000D01*
X149987000Y-98933000D02*
X149479000Y-99441000D01*
X151003000Y-98933000D02*
X150495000Y-99441000D01*
X152019000Y-98933000D02*
X151511000Y-99441000D01*
D14*
X149459000Y-97155000D02*
X150876000Y-97155000D01*
X143764000Y-91059000D02*
X143764000Y-88519000D01*
X146959000Y-98913000D02*
X146959000Y-97155000D01*
X146939000Y-98933000D02*
X146959000Y-98913000D01*
D15*
X141224000Y-93599000D02*
X142494000Y-92329000D01*
X142494000Y-92329000D02*
X144399000Y-92329000D01*
X144399000Y-92329000D02*
X145034000Y-91694000D01*
X145034000Y-89789000D02*
X146304000Y-88519000D01*
X145034000Y-91694000D02*
X145034000Y-89789000D01*
X147574000Y-89789000D02*
X148844000Y-88519000D01*
X146304000Y-89789000D02*
X147574000Y-89789000D01*
X143764000Y-93599000D02*
X143891000Y-93599000D01*
X143891000Y-93599000D02*
X145669000Y-91821000D01*
X145669000Y-91821000D02*
X145669000Y-91440000D01*
X145669000Y-91440000D02*
X145669000Y-90424000D01*
X145669000Y-90424000D02*
X146304000Y-89789000D01*
X142494000Y-97409000D02*
X141224000Y-96139000D01*
X144399000Y-97409000D02*
X142494000Y-97409000D01*
X145034000Y-98044000D02*
X144399000Y-97409000D01*
X145034000Y-99949000D02*
X145034000Y-98044000D01*
X146304000Y-101219000D02*
X145034000Y-99949000D01*
X147574000Y-99949000D02*
X148844000Y-101219000D01*
X146304000Y-99949000D02*
X147574000Y-99949000D01*
X145669000Y-99314000D02*
X146304000Y-99949000D01*
X145669000Y-97917000D02*
X145669000Y-99314000D01*
X143764000Y-96139000D02*
X143891000Y-96139000D01*
X143891000Y-96139000D02*
X145669000Y-97917000D01*
X141224000Y-101219000D02*
X141224000Y-98679000D01*
X143764000Y-101219000D02*
X143764000Y-98679000D01*
D17*
G36*
X154865000Y-87162092D02*
X154865000Y-90551000D01*
X154919046Y-90822705D01*
X155072954Y-91053046D01*
X155246000Y-91226092D01*
X155246000Y-98892908D01*
X155072954Y-99065954D01*
X154919046Y-99296295D01*
X154865000Y-99568000D01*
X154865000Y-102575908D01*
X154391908Y-103049000D01*
X138978092Y-103049000D01*
X138505000Y-102575908D01*
X138505000Y-97790000D01*
X138450954Y-97518295D01*
X138297046Y-97287954D01*
X138124000Y-97114908D01*
X138124000Y-93599000D01*
X139709907Y-93599000D01*
X139822946Y-94167285D01*
X140144853Y-94649054D01*
X140474026Y-94869000D01*
X140144853Y-95088946D01*
X139822946Y-95570715D01*
X139709907Y-96139000D01*
X139822946Y-96707285D01*
X140144853Y-97189054D01*
X140474026Y-97409000D01*
X140144853Y-97628946D01*
X139822946Y-98110715D01*
X139709907Y-98679000D01*
X139822946Y-99247285D01*
X140144853Y-99729054D01*
X140464000Y-99942301D01*
X140464000Y-99946046D01*
X140173946Y-100139853D01*
X139852039Y-100621622D01*
X139739000Y-101189907D01*
X139739000Y-101248093D01*
X139852039Y-101816378D01*
X140173946Y-102298147D01*
X140655715Y-102620054D01*
X141224000Y-102733093D01*
X141792285Y-102620054D01*
X142274054Y-102298147D01*
X142494000Y-101968974D01*
X142713946Y-102298147D01*
X143195715Y-102620054D01*
X143764000Y-102733093D01*
X144332285Y-102620054D01*
X144814054Y-102298147D01*
X145034000Y-101968974D01*
X145253946Y-102298147D01*
X145735715Y-102620054D01*
X146304000Y-102733093D01*
X146872285Y-102620054D01*
X147354054Y-102298147D01*
X147574000Y-101968974D01*
X147793946Y-102298147D01*
X148275715Y-102620054D01*
X148844000Y-102733093D01*
X149412285Y-102620054D01*
X149894054Y-102298147D01*
X150121702Y-101957447D01*
X150188817Y-102100358D01*
X150617076Y-102490645D01*
X151027110Y-102660476D01*
X151257000Y-102539155D01*
X151257000Y-101346000D01*
X151511000Y-101346000D01*
X151511000Y-102539155D01*
X151740890Y-102660476D01*
X152150924Y-102490645D01*
X152579183Y-102100358D01*
X152825486Y-101575892D01*
X152704819Y-101346000D01*
X151511000Y-101346000D01*
X151257000Y-101346000D01*
X151237000Y-101346000D01*
X151237000Y-101092000D01*
X151257000Y-101092000D01*
X151257000Y-99898845D01*
X151511000Y-99898845D01*
X151511000Y-101092000D01*
X152704819Y-101092000D01*
X152825486Y-100862108D01*
X152579183Y-100337642D01*
X152150924Y-99947355D01*
X151740890Y-99777524D01*
X151511000Y-99898845D01*
X151257000Y-99898845D01*
X151027110Y-99777524D01*
X150617076Y-99947355D01*
X150188817Y-100337642D01*
X150121702Y-100480553D01*
X149894054Y-100139853D01*
X149412285Y-99817946D01*
X148844000Y-99704907D01*
X148477592Y-99777790D01*
X148111401Y-99411599D01*
X147898163Y-99269119D01*
X147969000Y-98913000D01*
X147969000Y-98367279D01*
X148160441Y-98244090D01*
X148206969Y-98175994D01*
X148349302Y-98318327D01*
X148582691Y-98415000D01*
X149173250Y-98415000D01*
X149332000Y-98256250D01*
X149332000Y-97282000D01*
X149586000Y-97282000D01*
X149586000Y-98256250D01*
X149744750Y-98415000D01*
X150335309Y-98415000D01*
X150568698Y-98318327D01*
X150747327Y-98139699D01*
X150844000Y-97906310D01*
X150844000Y-97440750D01*
X150685250Y-97282000D01*
X149586000Y-97282000D01*
X149332000Y-97282000D01*
X149312000Y-97282000D01*
X149312000Y-97028000D01*
X149332000Y-97028000D01*
X149332000Y-96053750D01*
X149586000Y-96053750D01*
X149586000Y-97028000D01*
X150685250Y-97028000D01*
X150844000Y-96869250D01*
X150844000Y-96403690D01*
X150747327Y-96170301D01*
X150568698Y-95991673D01*
X150335309Y-95895000D01*
X149744750Y-95895000D01*
X149586000Y-96053750D01*
X149332000Y-96053750D01*
X149173250Y-95895000D01*
X148582691Y-95895000D01*
X148349302Y-95991673D01*
X148208064Y-96132910D01*
X148173090Y-96078559D01*
X147960890Y-95933569D01*
X147709000Y-95882560D01*
X146209000Y-95882560D01*
X145973683Y-95926838D01*
X145757559Y-96065910D01*
X145612569Y-96278110D01*
X145561560Y-96530000D01*
X145561560Y-96734758D01*
X145226281Y-96399479D01*
X145278093Y-96139000D01*
X145165054Y-95570715D01*
X144843147Y-95088946D01*
X144513974Y-94869000D01*
X144843147Y-94649054D01*
X145165054Y-94167285D01*
X145278093Y-93599000D01*
X145226281Y-93338521D01*
X145574000Y-92990802D01*
X145574000Y-93334310D01*
X145670673Y-93567699D01*
X145849302Y-93746327D01*
X146082691Y-93843000D01*
X146673250Y-93843000D01*
X146832000Y-93684250D01*
X146832000Y-92710000D01*
X146812000Y-92710000D01*
X146812000Y-92456000D01*
X146832000Y-92456000D01*
X146832000Y-91481750D01*
X147086000Y-91481750D01*
X147086000Y-92456000D01*
X147106000Y-92456000D01*
X147106000Y-92710000D01*
X147086000Y-92710000D01*
X147086000Y-93684250D01*
X147244750Y-93843000D01*
X147835309Y-93843000D01*
X148068698Y-93746327D01*
X148209936Y-93605090D01*
X148244910Y-93659441D01*
X148457110Y-93804431D01*
X148709000Y-93855440D01*
X150209000Y-93855440D01*
X150444317Y-93811162D01*
X150660441Y-93672090D01*
X150714481Y-93593000D01*
X150876000Y-93593000D01*
X151262510Y-93516118D01*
X151590178Y-93297178D01*
X151809118Y-92969510D01*
X151886000Y-92583000D01*
X151809118Y-92196490D01*
X151590178Y-91868822D01*
X151262510Y-91649882D01*
X150876000Y-91573000D01*
X150715844Y-91573000D01*
X150673090Y-91506559D01*
X150460890Y-91361569D01*
X150209000Y-91310560D01*
X148709000Y-91310560D01*
X148473683Y-91354838D01*
X148257559Y-91493910D01*
X148211031Y-91562006D01*
X148068698Y-91419673D01*
X147835309Y-91323000D01*
X147244750Y-91323000D01*
X147086000Y-91481750D01*
X146832000Y-91481750D01*
X146673250Y-91323000D01*
X146429000Y-91323000D01*
X146429000Y-90738802D01*
X146618802Y-90549000D01*
X147574000Y-90549000D01*
X147864839Y-90491148D01*
X148111401Y-90326401D01*
X148477592Y-89960210D01*
X148844000Y-90033093D01*
X149412285Y-89920054D01*
X149894054Y-89598147D01*
X150114000Y-89268974D01*
X150333946Y-89598147D01*
X150815715Y-89920054D01*
X151384000Y-90033093D01*
X151952285Y-89920054D01*
X152434054Y-89598147D01*
X152755961Y-89116378D01*
X152869000Y-88548093D01*
X152869000Y-88489907D01*
X152755961Y-87921622D01*
X152434054Y-87439853D01*
X151952285Y-87117946D01*
X151384000Y-87004907D01*
X150815715Y-87117946D01*
X150333946Y-87439853D01*
X150114000Y-87769026D01*
X149894054Y-87439853D01*
X149412285Y-87117946D01*
X148844000Y-87004907D01*
X148275715Y-87117946D01*
X147793946Y-87439853D01*
X147574000Y-87769026D01*
X147354054Y-87439853D01*
X146872285Y-87117946D01*
X146304000Y-87004907D01*
X145735715Y-87117946D01*
X145253946Y-87439853D01*
X145034000Y-87769026D01*
X144814054Y-87439853D01*
X144332285Y-87117946D01*
X143764000Y-87004907D01*
X143195715Y-87117946D01*
X142713946Y-87439853D01*
X142486298Y-87780553D01*
X142419183Y-87637642D01*
X141990924Y-87247355D01*
X141580890Y-87077524D01*
X141351000Y-87198845D01*
X141351000Y-88392000D01*
X141371000Y-88392000D01*
X141371000Y-88646000D01*
X141351000Y-88646000D01*
X141351000Y-90932000D01*
X141371000Y-90932000D01*
X141371000Y-91186000D01*
X141351000Y-91186000D01*
X141351000Y-91206000D01*
X141097000Y-91206000D01*
X141097000Y-91186000D01*
X139903845Y-91186000D01*
X139782524Y-91415890D01*
X139952355Y-91825924D01*
X140342642Y-92254183D01*
X140485553Y-92321298D01*
X140144853Y-92548946D01*
X139822946Y-93030715D01*
X139709907Y-93599000D01*
X138124000Y-93599000D01*
X138124000Y-92623092D01*
X138297046Y-92450046D01*
X138450954Y-92219705D01*
X138505000Y-91948000D01*
X138505000Y-88875892D01*
X139782514Y-88875892D01*
X140028817Y-89400358D01*
X140457076Y-89790645D01*
X140479061Y-89799751D01*
X140342642Y-89863817D01*
X139952355Y-90292076D01*
X139782524Y-90702110D01*
X139903845Y-90932000D01*
X141097000Y-90932000D01*
X141097000Y-88646000D01*
X139903181Y-88646000D01*
X139782514Y-88875892D01*
X138505000Y-88875892D01*
X138505000Y-88162108D01*
X139782514Y-88162108D01*
X139903181Y-88392000D01*
X141097000Y-88392000D01*
X141097000Y-87198845D01*
X140867110Y-87077524D01*
X140457076Y-87247355D01*
X140028817Y-87637642D01*
X139782514Y-88162108D01*
X138505000Y-88162108D01*
X138505000Y-87162092D01*
X138978092Y-86689000D01*
X154391908Y-86689000D01*
X154865000Y-87162092D01*
X154865000Y-87162092D01*
G37*
X154865000Y-87162092D02*
X154865000Y-90551000D01*
X154919046Y-90822705D01*
X155072954Y-91053046D01*
X155246000Y-91226092D01*
X155246000Y-98892908D01*
X155072954Y-99065954D01*
X154919046Y-99296295D01*
X154865000Y-99568000D01*
X154865000Y-102575908D01*
X154391908Y-103049000D01*
X138978092Y-103049000D01*
X138505000Y-102575908D01*
X138505000Y-97790000D01*
X138450954Y-97518295D01*
X138297046Y-97287954D01*
X138124000Y-97114908D01*
X138124000Y-93599000D01*
X139709907Y-93599000D01*
X139822946Y-94167285D01*
X140144853Y-94649054D01*
X140474026Y-94869000D01*
X140144853Y-95088946D01*
X139822946Y-95570715D01*
X139709907Y-96139000D01*
X139822946Y-96707285D01*
X140144853Y-97189054D01*
X140474026Y-97409000D01*
X140144853Y-97628946D01*
X139822946Y-98110715D01*
X139709907Y-98679000D01*
X139822946Y-99247285D01*
X140144853Y-99729054D01*
X140464000Y-99942301D01*
X140464000Y-99946046D01*
X140173946Y-100139853D01*
X139852039Y-100621622D01*
X139739000Y-101189907D01*
X139739000Y-101248093D01*
X139852039Y-101816378D01*
X140173946Y-102298147D01*
X140655715Y-102620054D01*
X141224000Y-102733093D01*
X141792285Y-102620054D01*
X142274054Y-102298147D01*
X142494000Y-101968974D01*
X142713946Y-102298147D01*
X143195715Y-102620054D01*
X143764000Y-102733093D01*
X144332285Y-102620054D01*
X144814054Y-102298147D01*
X145034000Y-101968974D01*
X145253946Y-102298147D01*
X145735715Y-102620054D01*
X146304000Y-102733093D01*
X146872285Y-102620054D01*
X147354054Y-102298147D01*
X147574000Y-101968974D01*
X147793946Y-102298147D01*
X148275715Y-102620054D01*
X148844000Y-102733093D01*
X149412285Y-102620054D01*
X149894054Y-102298147D01*
X150121702Y-101957447D01*
X150188817Y-102100358D01*
X150617076Y-102490645D01*
X151027110Y-102660476D01*
X151257000Y-102539155D01*
X151257000Y-101346000D01*
X151511000Y-101346000D01*
X151511000Y-102539155D01*
X151740890Y-102660476D01*
X152150924Y-102490645D01*
X152579183Y-102100358D01*
X152825486Y-101575892D01*
X152704819Y-101346000D01*
X151511000Y-101346000D01*
X151257000Y-101346000D01*
X151237000Y-101346000D01*
X151237000Y-101092000D01*
X151257000Y-101092000D01*
X151257000Y-99898845D01*
X151511000Y-99898845D01*
X151511000Y-101092000D01*
X152704819Y-101092000D01*
X152825486Y-100862108D01*
X152579183Y-100337642D01*
X152150924Y-99947355D01*
X151740890Y-99777524D01*
X151511000Y-99898845D01*
X151257000Y-99898845D01*
X151027110Y-99777524D01*
X150617076Y-99947355D01*
X150188817Y-100337642D01*
X150121702Y-100480553D01*
X149894054Y-100139853D01*
X149412285Y-99817946D01*
X148844000Y-99704907D01*
X148477592Y-99777790D01*
X148111401Y-99411599D01*
X147898163Y-99269119D01*
X147969000Y-98913000D01*
X147969000Y-98367279D01*
X148160441Y-98244090D01*
X148206969Y-98175994D01*
X148349302Y-98318327D01*
X148582691Y-98415000D01*
X149173250Y-98415000D01*
X149332000Y-98256250D01*
X149332000Y-97282000D01*
X149586000Y-97282000D01*
X149586000Y-98256250D01*
X149744750Y-98415000D01*
X150335309Y-98415000D01*
X150568698Y-98318327D01*
X150747327Y-98139699D01*
X150844000Y-97906310D01*
X150844000Y-97440750D01*
X150685250Y-97282000D01*
X149586000Y-97282000D01*
X149332000Y-97282000D01*
X149312000Y-97282000D01*
X149312000Y-97028000D01*
X149332000Y-97028000D01*
X149332000Y-96053750D01*
X149586000Y-96053750D01*
X149586000Y-97028000D01*
X150685250Y-97028000D01*
X150844000Y-96869250D01*
X150844000Y-96403690D01*
X150747327Y-96170301D01*
X150568698Y-95991673D01*
X150335309Y-95895000D01*
X149744750Y-95895000D01*
X149586000Y-96053750D01*
X149332000Y-96053750D01*
X149173250Y-95895000D01*
X148582691Y-95895000D01*
X148349302Y-95991673D01*
X148208064Y-96132910D01*
X148173090Y-96078559D01*
X147960890Y-95933569D01*
X147709000Y-95882560D01*
X146209000Y-95882560D01*
X145973683Y-95926838D01*
X145757559Y-96065910D01*
X145612569Y-96278110D01*
X145561560Y-96530000D01*
X145561560Y-96734758D01*
X145226281Y-96399479D01*
X145278093Y-96139000D01*
X145165054Y-95570715D01*
X144843147Y-95088946D01*
X144513974Y-94869000D01*
X144843147Y-94649054D01*
X145165054Y-94167285D01*
X145278093Y-93599000D01*
X145226281Y-93338521D01*
X145574000Y-92990802D01*
X145574000Y-93334310D01*
X145670673Y-93567699D01*
X145849302Y-93746327D01*
X146082691Y-93843000D01*
X146673250Y-93843000D01*
X146832000Y-93684250D01*
X146832000Y-92710000D01*
X146812000Y-92710000D01*
X146812000Y-92456000D01*
X146832000Y-92456000D01*
X146832000Y-91481750D01*
X147086000Y-91481750D01*
X147086000Y-92456000D01*
X147106000Y-92456000D01*
X147106000Y-92710000D01*
X147086000Y-92710000D01*
X147086000Y-93684250D01*
X147244750Y-93843000D01*
X147835309Y-93843000D01*
X148068698Y-93746327D01*
X148209936Y-93605090D01*
X148244910Y-93659441D01*
X148457110Y-93804431D01*
X148709000Y-93855440D01*
X150209000Y-93855440D01*
X150444317Y-93811162D01*
X150660441Y-93672090D01*
X150714481Y-93593000D01*
X150876000Y-93593000D01*
X151262510Y-93516118D01*
X151590178Y-93297178D01*
X151809118Y-92969510D01*
X151886000Y-92583000D01*
X151809118Y-92196490D01*
X151590178Y-91868822D01*
X151262510Y-91649882D01*
X150876000Y-91573000D01*
X150715844Y-91573000D01*
X150673090Y-91506559D01*
X150460890Y-91361569D01*
X150209000Y-91310560D01*
X148709000Y-91310560D01*
X148473683Y-91354838D01*
X148257559Y-91493910D01*
X148211031Y-91562006D01*
X148068698Y-91419673D01*
X147835309Y-91323000D01*
X147244750Y-91323000D01*
X147086000Y-91481750D01*
X146832000Y-91481750D01*
X146673250Y-91323000D01*
X146429000Y-91323000D01*
X146429000Y-90738802D01*
X146618802Y-90549000D01*
X147574000Y-90549000D01*
X147864839Y-90491148D01*
X148111401Y-90326401D01*
X148477592Y-89960210D01*
X148844000Y-90033093D01*
X149412285Y-89920054D01*
X149894054Y-89598147D01*
X150114000Y-89268974D01*
X150333946Y-89598147D01*
X150815715Y-89920054D01*
X151384000Y-90033093D01*
X151952285Y-89920054D01*
X152434054Y-89598147D01*
X152755961Y-89116378D01*
X152869000Y-88548093D01*
X152869000Y-88489907D01*
X152755961Y-87921622D01*
X152434054Y-87439853D01*
X151952285Y-87117946D01*
X151384000Y-87004907D01*
X150815715Y-87117946D01*
X150333946Y-87439853D01*
X150114000Y-87769026D01*
X149894054Y-87439853D01*
X149412285Y-87117946D01*
X148844000Y-87004907D01*
X148275715Y-87117946D01*
X147793946Y-87439853D01*
X147574000Y-87769026D01*
X147354054Y-87439853D01*
X146872285Y-87117946D01*
X146304000Y-87004907D01*
X145735715Y-87117946D01*
X145253946Y-87439853D01*
X145034000Y-87769026D01*
X144814054Y-87439853D01*
X144332285Y-87117946D01*
X143764000Y-87004907D01*
X143195715Y-87117946D01*
X142713946Y-87439853D01*
X142486298Y-87780553D01*
X142419183Y-87637642D01*
X141990924Y-87247355D01*
X141580890Y-87077524D01*
X141351000Y-87198845D01*
X141351000Y-88392000D01*
X141371000Y-88392000D01*
X141371000Y-88646000D01*
X141351000Y-88646000D01*
X141351000Y-90932000D01*
X141371000Y-90932000D01*
X141371000Y-91186000D01*
X141351000Y-91186000D01*
X141351000Y-91206000D01*
X141097000Y-91206000D01*
X141097000Y-91186000D01*
X139903845Y-91186000D01*
X139782524Y-91415890D01*
X139952355Y-91825924D01*
X140342642Y-92254183D01*
X140485553Y-92321298D01*
X140144853Y-92548946D01*
X139822946Y-93030715D01*
X139709907Y-93599000D01*
X138124000Y-93599000D01*
X138124000Y-92623092D01*
X138297046Y-92450046D01*
X138450954Y-92219705D01*
X138505000Y-91948000D01*
X138505000Y-88875892D01*
X139782514Y-88875892D01*
X140028817Y-89400358D01*
X140457076Y-89790645D01*
X140479061Y-89799751D01*
X140342642Y-89863817D01*
X139952355Y-90292076D01*
X139782524Y-90702110D01*
X139903845Y-90932000D01*
X141097000Y-90932000D01*
X141097000Y-88646000D01*
X139903181Y-88646000D01*
X139782514Y-88875892D01*
X138505000Y-88875892D01*
X138505000Y-88162108D01*
X139782514Y-88162108D01*
X139903181Y-88392000D01*
X141097000Y-88392000D01*
X141097000Y-87198845D01*
X140867110Y-87077524D01*
X140457076Y-87247355D01*
X140028817Y-87637642D01*
X139782514Y-88162108D01*
X138505000Y-88162108D01*
X138505000Y-87162092D01*
X138978092Y-86689000D01*
X154391908Y-86689000D01*
X154865000Y-87162092D01*
M02*
