G04 #@! TF.FileFunction,Soldermask,Bot*
%FSLAX46Y46*%
G04 Gerber Fmt 4.6, Leading zero omitted, Abs format (unit mm)*
G04 Created by KiCad (PCBNEW 4.0.7) date 2018 April 02, Monday 17:07:15*
%MOMM*%
%LPD*%
G01*
G04 APERTURE LIST*
%ADD10C,0.100000*%
%ADD11C,0.150000*%
%ADD12C,0.137500*%
%ADD13O,2.100000X2.100000*%
%ADD14R,1.900000X1.650000*%
G04 APERTURE END LIST*
D10*
X152908000Y-98425000D02*
X152908000Y-91567000D01*
D11*
X154904571Y-98040642D02*
X154904571Y-97697785D01*
X154304571Y-97944214D02*
X154904571Y-97869214D01*
X154304571Y-97572785D02*
X154904571Y-97497785D01*
X154618857Y-97533499D02*
X154618857Y-97190642D01*
X154304571Y-97229928D02*
X154904571Y-97154928D01*
X154304571Y-96944214D02*
X154904571Y-96869214D01*
X154333143Y-96683499D02*
X154304571Y-96601357D01*
X154304571Y-96458500D01*
X154333143Y-96397785D01*
X154361714Y-96365643D01*
X154418857Y-96329928D01*
X154476000Y-96322785D01*
X154533143Y-96344214D01*
X154561714Y-96369214D01*
X154590286Y-96422785D01*
X154618857Y-96533500D01*
X154647429Y-96587070D01*
X154676000Y-96612071D01*
X154733143Y-96633499D01*
X154790286Y-96626356D01*
X154847429Y-96590642D01*
X154876000Y-96558499D01*
X154904571Y-96497786D01*
X154904571Y-96354928D01*
X154876000Y-96272785D01*
X154304571Y-95629928D02*
X154904571Y-95554928D01*
X154476000Y-95408499D01*
X154904571Y-95154928D01*
X154304571Y-95229928D01*
X154476000Y-94951356D02*
X154476000Y-94665642D01*
X154304571Y-95029928D02*
X154904571Y-94754928D01*
X154304571Y-94629928D01*
X154361714Y-94079928D02*
X154333143Y-94112070D01*
X154304571Y-94201356D01*
X154304571Y-94258499D01*
X154333143Y-94340642D01*
X154390286Y-94390641D01*
X154447429Y-94412070D01*
X154561714Y-94426356D01*
X154647429Y-94415641D01*
X154761714Y-94372785D01*
X154818857Y-94337070D01*
X154876000Y-94272785D01*
X154904571Y-94183499D01*
X154904571Y-94126356D01*
X154876000Y-94044213D01*
X154847429Y-94019213D01*
X154304571Y-93829928D02*
X154904571Y-93754928D01*
X154618857Y-93790642D02*
X154618857Y-93447785D01*
X154304571Y-93487071D02*
X154904571Y-93412071D01*
X154304571Y-93201357D02*
X154904571Y-93126357D01*
X154304571Y-92915643D02*
X154904571Y-92840643D01*
X154304571Y-92572786D01*
X154904571Y-92497786D01*
X154618857Y-92247786D02*
X154618857Y-92047786D01*
X154304571Y-92001358D02*
X154304571Y-92287072D01*
X154904571Y-92212072D01*
X154904571Y-91926358D01*
X153254571Y-98144214D02*
X153854571Y-98069214D01*
X153568857Y-98104928D02*
X153568857Y-97762071D01*
X153254571Y-97801357D02*
X153854571Y-97726357D01*
X153426000Y-97522785D02*
X153426000Y-97237071D01*
X153254571Y-97601357D02*
X153854571Y-97326357D01*
X153254571Y-97201357D01*
X153283143Y-97026356D02*
X153254571Y-96944214D01*
X153254571Y-96801357D01*
X153283143Y-96740642D01*
X153311714Y-96708500D01*
X153368857Y-96672785D01*
X153426000Y-96665642D01*
X153483143Y-96687071D01*
X153511714Y-96712071D01*
X153540286Y-96765642D01*
X153568857Y-96876357D01*
X153597429Y-96929927D01*
X153626000Y-96954928D01*
X153683143Y-96976356D01*
X153740286Y-96969213D01*
X153797429Y-96933499D01*
X153826000Y-96901356D01*
X153854571Y-96840643D01*
X153854571Y-96697785D01*
X153826000Y-96615642D01*
X153254571Y-95972785D02*
X153854571Y-95897785D01*
X153254571Y-95629928D01*
X153854571Y-95554928D01*
X153854571Y-95154928D02*
X153854571Y-95040642D01*
X153826000Y-94987071D01*
X153768857Y-94937071D01*
X153654571Y-94922785D01*
X153454571Y-94947785D01*
X153340286Y-94990642D01*
X153283143Y-95054928D01*
X153254571Y-95115642D01*
X153254571Y-95229928D01*
X153283143Y-95283499D01*
X153340286Y-95333499D01*
X153454571Y-95347785D01*
X153654571Y-95322785D01*
X153768857Y-95279928D01*
X153826000Y-95215642D01*
X153854571Y-95154928D01*
X153568857Y-94019214D02*
X153540286Y-93937071D01*
X153511714Y-93912071D01*
X153454571Y-93890643D01*
X153368857Y-93901357D01*
X153311714Y-93937071D01*
X153283143Y-93969214D01*
X153254571Y-94029928D01*
X153254571Y-94258500D01*
X153854571Y-94183500D01*
X153854571Y-93983500D01*
X153826000Y-93929928D01*
X153797429Y-93904928D01*
X153740286Y-93883499D01*
X153683143Y-93890642D01*
X153626000Y-93926357D01*
X153597429Y-93958499D01*
X153568857Y-94019214D01*
X153568857Y-94219214D01*
X153254571Y-93315643D02*
X153540286Y-93479928D01*
X153254571Y-93658500D02*
X153854571Y-93583500D01*
X153854571Y-93354928D01*
X153826000Y-93301357D01*
X153797429Y-93276356D01*
X153740286Y-93254928D01*
X153654571Y-93265643D01*
X153597429Y-93301356D01*
X153568857Y-93333500D01*
X153540286Y-93394213D01*
X153540286Y-93622785D01*
X153426000Y-93065642D02*
X153426000Y-92779928D01*
X153254571Y-93144214D02*
X153854571Y-92869214D01*
X153254571Y-92744214D01*
X153254571Y-92544214D02*
X153854571Y-92469214D01*
X153254571Y-92258500D02*
X153854571Y-92183500D01*
X153254571Y-91915643D01*
X153854571Y-91840643D01*
D12*
X152574190Y-98153589D02*
X152128952Y-98209244D01*
X152076571Y-98189601D01*
X152050381Y-98166684D01*
X152024190Y-98117577D01*
X152024190Y-98012815D01*
X152050381Y-97957160D01*
X152076571Y-97927696D01*
X152128952Y-97894958D01*
X152574190Y-97839303D01*
X152050381Y-97669065D02*
X152024190Y-97593768D01*
X152024190Y-97462815D01*
X152050381Y-97407160D01*
X152076571Y-97377697D01*
X152128952Y-97344958D01*
X152181333Y-97338410D01*
X152233714Y-97358054D01*
X152259905Y-97380970D01*
X152286095Y-97430077D01*
X152312286Y-97531565D01*
X152338476Y-97580672D01*
X152364667Y-97603590D01*
X152417048Y-97623232D01*
X152469429Y-97616684D01*
X152521810Y-97583947D01*
X152548000Y-97554482D01*
X152574190Y-97498827D01*
X152574190Y-97367875D01*
X152548000Y-97292577D01*
X152312286Y-97086327D02*
X152312286Y-96902993D01*
X152024190Y-96860434D02*
X152024190Y-97122339D01*
X152574190Y-97053589D01*
X152574190Y-96791684D01*
X152286095Y-96068172D02*
X152024190Y-96100910D01*
X152574190Y-96215493D02*
X152286095Y-96068172D01*
X152574190Y-95848826D01*
X152574190Y-95560731D02*
X152574190Y-95455969D01*
X152548000Y-95406862D01*
X152495619Y-95361029D01*
X152390857Y-95347933D01*
X152207524Y-95370849D01*
X152102762Y-95410136D01*
X152050381Y-95469064D01*
X152024190Y-95524719D01*
X152024190Y-95629481D01*
X152050381Y-95678588D01*
X152102762Y-95724422D01*
X152207524Y-95737516D01*
X152390857Y-95714600D01*
X152495619Y-95675315D01*
X152548000Y-95616386D01*
X152574190Y-95560731D01*
X152574190Y-95089303D02*
X152128952Y-95144958D01*
X152076571Y-95125315D01*
X152050381Y-95102398D01*
X152024190Y-95053291D01*
X152024190Y-94948529D01*
X152050381Y-94892874D01*
X152076571Y-94863410D01*
X152128952Y-94830672D01*
X152574190Y-94775017D01*
X152024190Y-94267577D02*
X152286095Y-94418172D01*
X152024190Y-94581863D02*
X152574190Y-94513113D01*
X152574190Y-94303589D01*
X152548000Y-94254482D01*
X152521810Y-94231565D01*
X152469429Y-94211922D01*
X152390857Y-94221744D01*
X152338476Y-94254481D01*
X152312286Y-94283946D01*
X152286095Y-94339601D01*
X152286095Y-94549125D01*
X152574190Y-93439303D02*
X152574190Y-93334541D01*
X152548000Y-93285434D01*
X152495619Y-93239601D01*
X152390857Y-93226505D01*
X152207524Y-93249421D01*
X152102762Y-93288708D01*
X152050381Y-93347636D01*
X152024190Y-93403291D01*
X152024190Y-93508053D01*
X152050381Y-93557160D01*
X152102762Y-93602994D01*
X152207524Y-93616088D01*
X152390857Y-93593172D01*
X152495619Y-93553887D01*
X152548000Y-93494958D01*
X152574190Y-93439303D01*
X152574190Y-93020256D02*
X152024190Y-92958053D01*
X152417048Y-92804184D01*
X152024190Y-92748529D01*
X152574190Y-92548827D01*
X152024190Y-92408054D02*
X152574190Y-92339304D01*
X152024190Y-92093768D01*
X152574190Y-92025018D01*
X152076571Y-91825317D02*
X152050381Y-91802399D01*
X152024190Y-91831864D01*
X152050381Y-91854780D01*
X152076571Y-91825317D01*
X152024190Y-91831864D01*
X152233714Y-91805674D02*
X152548000Y-91792578D01*
X152574190Y-91763114D01*
X152548000Y-91740197D01*
X152233714Y-91805674D01*
X152574190Y-91763114D01*
D13*
X143764000Y-91059000D03*
X141224000Y-91059000D03*
X143764000Y-93599000D03*
X141224000Y-93599000D03*
X143764000Y-96139000D03*
X141224000Y-96139000D03*
X143764000Y-98679000D03*
X141224000Y-98679000D03*
X141224000Y-101219000D03*
X143764000Y-101219000D03*
X146304000Y-101219000D03*
X148844000Y-101219000D03*
X151384000Y-101219000D03*
X141224000Y-88519000D03*
X143764000Y-88519000D03*
X146304000Y-88519000D03*
X148844000Y-88519000D03*
X151384000Y-88519000D03*
D14*
X146959000Y-97155000D03*
X149459000Y-97155000D03*
X149459000Y-92583000D03*
X146959000Y-92583000D03*
M02*
