M48
;DRILL file {KiCad 4.0.7} date 2018 April 02, Monday 02:54:34
;FORMAT={-:-/ absolute / inch / decimal}
FMAT,2
INCH,TZ
T1C0.016
T2C0.039
%
G90
G05
M72
T1
X6.675Y-4.345
X6.675Y-4.66
X6.715Y-4.34
X6.715Y-4.66
X6.735Y-4.32
X6.735Y-4.68
X6.755Y-4.34
X6.755Y-4.66
X6.775Y-4.32
X6.775Y-4.68
X6.795Y-4.34
X6.795Y-4.66
X6.815Y-4.32
X6.815Y-4.68
X6.83Y-4.41
X6.83Y-4.59
X6.835Y-4.34
X6.835Y-4.66
X6.855Y-4.32
X6.855Y-4.68
X6.875Y-4.66
X6.88Y-4.345
T2
X6.45Y-4.25
X6.45Y-4.35
X6.45Y-4.45
X6.45Y-4.55
X6.45Y-4.65
X6.45Y-4.75
X6.55Y-4.25
X6.55Y-4.35
X6.55Y-4.45
X6.55Y-4.55
X6.55Y-4.65
X6.55Y-4.75
X6.65Y-4.25
X6.65Y-4.75
X6.75Y-4.25
X6.75Y-4.75
X6.85Y-4.25
X6.85Y-4.75
T0
M30
