G04 #@! TF.FileFunction,Copper,L1,Top,Signal*
%FSLAX46Y46*%
G04 Gerber Fmt 4.6, Leading zero omitted, Abs format (unit mm)*
G04 Created by KiCad (PCBNEW 4.0.7) date 2018 April 02, Monday 02:54:30*
%MOMM*%
%LPD*%
G01*
G04 APERTURE LIST*
%ADD10C,0.100000*%
%ADD11R,2.000000X3.800000*%
%ADD12R,2.000000X1.500000*%
%ADD13O,1.700000X1.700000*%
%ADD14R,1.300000X1.500000*%
%ADD15C,0.600000*%
%ADD16C,0.750000*%
%ADD17C,0.250000*%
%ADD18C,0.400000*%
%ADD19C,0.254000*%
G04 APERTURE END LIST*
D10*
D11*
X169570000Y-114300000D03*
D12*
X175870000Y-114300000D03*
X175870000Y-112000000D03*
X175870000Y-116600000D03*
D13*
X163830000Y-120650000D03*
X166370000Y-120650000D03*
X168910000Y-120650000D03*
X171450000Y-120650000D03*
X173990000Y-120650000D03*
X163830000Y-107950000D03*
X166370000Y-107950000D03*
X168910000Y-107950000D03*
X171450000Y-107950000D03*
X173990000Y-107950000D03*
X166370000Y-110490000D03*
X163830000Y-110490000D03*
X166370000Y-113030000D03*
X163830000Y-113030000D03*
X166370000Y-115570000D03*
X163830000Y-115570000D03*
X166370000Y-118110000D03*
X163830000Y-118110000D03*
D14*
X161417000Y-110570000D03*
X161417000Y-107870000D03*
X161417000Y-118030000D03*
X161417000Y-120730000D03*
D15*
X173482000Y-112014000D03*
X169545000Y-110363000D03*
X174752000Y-110363000D03*
X174117000Y-109728000D03*
X173609000Y-110236000D03*
X173101000Y-109728000D03*
X172593000Y-110236000D03*
X172085000Y-109728000D03*
X171577000Y-110236000D03*
X171069000Y-109728000D03*
X170561000Y-110236000D03*
X170561000Y-118364000D03*
X171069000Y-118872000D03*
X171577000Y-118364000D03*
X172085000Y-118872000D03*
X172593000Y-118364000D03*
X173101000Y-118872000D03*
X173609000Y-118364000D03*
X174117000Y-118872000D03*
X174625000Y-118364000D03*
X173482000Y-116586000D03*
X169545000Y-118364000D03*
D16*
X175870000Y-112000000D02*
X175870000Y-109830000D01*
X175870000Y-109830000D02*
X173990000Y-107950000D01*
X175870000Y-112000000D02*
X173496000Y-112000000D01*
X173496000Y-112000000D02*
X173482000Y-112014000D01*
D17*
X175870000Y-112000000D02*
X175500000Y-112000000D01*
X175500000Y-112000000D02*
X175260000Y-111760000D01*
X173970000Y-107970000D02*
X173990000Y-107950000D01*
X173609000Y-110236000D02*
X174117000Y-109728000D01*
X172593000Y-110236000D02*
X173101000Y-109728000D01*
X171577000Y-110236000D02*
X172085000Y-109728000D01*
X170561000Y-110236000D02*
X171069000Y-109728000D01*
X175870000Y-116600000D02*
X175870000Y-117119000D01*
X175870000Y-117119000D02*
X174625000Y-118364000D01*
X171069000Y-118872000D02*
X170561000Y-118364000D01*
X172085000Y-118872000D02*
X171577000Y-118364000D01*
X173101000Y-118872000D02*
X172593000Y-118364000D01*
X174117000Y-118872000D02*
X173609000Y-118364000D01*
D16*
X173496000Y-116600000D02*
X175870000Y-116600000D01*
X173496000Y-116600000D02*
X173482000Y-116586000D01*
D17*
X175870000Y-116600000D02*
X175870000Y-116845000D01*
X173970000Y-120630000D02*
X173990000Y-120650000D01*
D18*
X163830000Y-107950000D02*
X165100000Y-106680000D01*
X165100000Y-106680000D02*
X173609000Y-106680000D01*
X173609000Y-106680000D02*
X175006000Y-106680000D01*
X175006000Y-106680000D02*
X175641000Y-107315000D01*
X177419000Y-110490000D02*
X177419000Y-109982000D01*
X177419000Y-114046000D02*
X177419000Y-110490000D01*
X177165000Y-114300000D02*
X175870000Y-114300000D01*
X177165000Y-114300000D02*
X177419000Y-114046000D01*
X175641000Y-108204000D02*
X175641000Y-107315000D01*
X177419000Y-109982000D02*
X175641000Y-108204000D01*
X169570000Y-114300000D02*
X169570000Y-118339000D01*
X169570000Y-118339000D02*
X169545000Y-118364000D01*
D17*
X170307000Y-115037000D02*
X169570000Y-114300000D01*
X169291000Y-114579000D02*
X169570000Y-114300000D01*
X168783000Y-115087000D02*
X169570000Y-114300000D01*
D18*
X175870000Y-114300000D02*
X169570000Y-114300000D01*
D17*
X169418000Y-114452000D02*
X169570000Y-114300000D01*
X163830000Y-107950000D02*
X161370000Y-107950000D01*
X161370000Y-107950000D02*
X161290000Y-107870000D01*
X163750000Y-110410000D02*
X163830000Y-110490000D01*
X161290000Y-118030000D02*
X161290000Y-117602000D01*
X161290000Y-117602000D02*
X161798000Y-117094000D01*
X161798000Y-117094000D02*
X162052000Y-116840000D01*
X162052000Y-116840000D02*
X162052000Y-111760000D01*
X162052000Y-111760000D02*
X161290000Y-110998000D01*
X161290000Y-110998000D02*
X161290000Y-110570000D01*
X161290000Y-118190000D02*
X161290000Y-120650000D01*
D19*
G36*
X174266838Y-115285317D02*
X174372482Y-115449492D01*
X174331673Y-115490301D01*
X174235000Y-115723690D01*
X174235000Y-116314250D01*
X174393750Y-116473000D01*
X175743000Y-116473000D01*
X175743000Y-116453000D01*
X175997000Y-116453000D01*
X175997000Y-116473000D01*
X176017000Y-116473000D01*
X176017000Y-116727000D01*
X175997000Y-116727000D01*
X175997000Y-117826250D01*
X176155750Y-117985000D01*
X176996309Y-117985000D01*
X177229698Y-117888327D01*
X177408327Y-117709699D01*
X177471000Y-117558393D01*
X177471000Y-122006908D01*
X176997908Y-122480000D01*
X161584092Y-122480000D01*
X161175171Y-122071079D01*
X161290000Y-121956250D01*
X161290000Y-121410000D01*
X161544000Y-121359476D01*
X161544000Y-121956250D01*
X161702750Y-122115000D01*
X162193310Y-122115000D01*
X162426699Y-122018327D01*
X162605327Y-121839698D01*
X162700419Y-121610126D01*
X162779946Y-121729147D01*
X163261715Y-122051054D01*
X163830000Y-122164093D01*
X164398285Y-122051054D01*
X164880054Y-121729147D01*
X165100000Y-121399974D01*
X165319946Y-121729147D01*
X165801715Y-122051054D01*
X166370000Y-122164093D01*
X166938285Y-122051054D01*
X167420054Y-121729147D01*
X167640000Y-121399974D01*
X167859946Y-121729147D01*
X168341715Y-122051054D01*
X168910000Y-122164093D01*
X169478285Y-122051054D01*
X169960054Y-121729147D01*
X170180000Y-121399974D01*
X170399946Y-121729147D01*
X170881715Y-122051054D01*
X171450000Y-122164093D01*
X172018285Y-122051054D01*
X172500054Y-121729147D01*
X172727702Y-121388447D01*
X172794817Y-121531358D01*
X173223076Y-121921645D01*
X173633110Y-122091476D01*
X173863000Y-121970155D01*
X173863000Y-120777000D01*
X174117000Y-120777000D01*
X174117000Y-121970155D01*
X174346890Y-122091476D01*
X174756924Y-121921645D01*
X175185183Y-121531358D01*
X175431486Y-121006892D01*
X175310819Y-120777000D01*
X174117000Y-120777000D01*
X173863000Y-120777000D01*
X173843000Y-120777000D01*
X173843000Y-120523000D01*
X173863000Y-120523000D01*
X173863000Y-119329845D01*
X174117000Y-119329845D01*
X174117000Y-120523000D01*
X175310819Y-120523000D01*
X175431486Y-120293108D01*
X175185183Y-119768642D01*
X174756924Y-119378355D01*
X174346890Y-119208524D01*
X174117000Y-119329845D01*
X173863000Y-119329845D01*
X173633110Y-119208524D01*
X173223076Y-119378355D01*
X172794817Y-119768642D01*
X172727702Y-119911553D01*
X172500054Y-119570853D01*
X172018285Y-119248946D01*
X171450000Y-119135907D01*
X170881715Y-119248946D01*
X170399946Y-119570853D01*
X170180000Y-119900026D01*
X169960054Y-119570853D01*
X169553208Y-119299008D01*
X169730167Y-119299162D01*
X170073943Y-119157117D01*
X170337192Y-118894327D01*
X170479838Y-118550799D01*
X170480162Y-118178833D01*
X170405000Y-117996927D01*
X170405000Y-116885750D01*
X174235000Y-116885750D01*
X174235000Y-117476310D01*
X174331673Y-117709699D01*
X174510302Y-117888327D01*
X174743691Y-117985000D01*
X175584250Y-117985000D01*
X175743000Y-117826250D01*
X175743000Y-116727000D01*
X174393750Y-116727000D01*
X174235000Y-116885750D01*
X170405000Y-116885750D01*
X170405000Y-116847440D01*
X170570000Y-116847440D01*
X170805317Y-116803162D01*
X171021441Y-116664090D01*
X171166431Y-116451890D01*
X171217440Y-116200000D01*
X171217440Y-115135000D01*
X174238554Y-115135000D01*
X174266838Y-115285317D01*
X174266838Y-115285317D01*
G37*
X174266838Y-115285317D02*
X174372482Y-115449492D01*
X174331673Y-115490301D01*
X174235000Y-115723690D01*
X174235000Y-116314250D01*
X174393750Y-116473000D01*
X175743000Y-116473000D01*
X175743000Y-116453000D01*
X175997000Y-116453000D01*
X175997000Y-116473000D01*
X176017000Y-116473000D01*
X176017000Y-116727000D01*
X175997000Y-116727000D01*
X175997000Y-117826250D01*
X176155750Y-117985000D01*
X176996309Y-117985000D01*
X177229698Y-117888327D01*
X177408327Y-117709699D01*
X177471000Y-117558393D01*
X177471000Y-122006908D01*
X176997908Y-122480000D01*
X161584092Y-122480000D01*
X161175171Y-122071079D01*
X161290000Y-121956250D01*
X161290000Y-121410000D01*
X161544000Y-121359476D01*
X161544000Y-121956250D01*
X161702750Y-122115000D01*
X162193310Y-122115000D01*
X162426699Y-122018327D01*
X162605327Y-121839698D01*
X162700419Y-121610126D01*
X162779946Y-121729147D01*
X163261715Y-122051054D01*
X163830000Y-122164093D01*
X164398285Y-122051054D01*
X164880054Y-121729147D01*
X165100000Y-121399974D01*
X165319946Y-121729147D01*
X165801715Y-122051054D01*
X166370000Y-122164093D01*
X166938285Y-122051054D01*
X167420054Y-121729147D01*
X167640000Y-121399974D01*
X167859946Y-121729147D01*
X168341715Y-122051054D01*
X168910000Y-122164093D01*
X169478285Y-122051054D01*
X169960054Y-121729147D01*
X170180000Y-121399974D01*
X170399946Y-121729147D01*
X170881715Y-122051054D01*
X171450000Y-122164093D01*
X172018285Y-122051054D01*
X172500054Y-121729147D01*
X172727702Y-121388447D01*
X172794817Y-121531358D01*
X173223076Y-121921645D01*
X173633110Y-122091476D01*
X173863000Y-121970155D01*
X173863000Y-120777000D01*
X174117000Y-120777000D01*
X174117000Y-121970155D01*
X174346890Y-122091476D01*
X174756924Y-121921645D01*
X175185183Y-121531358D01*
X175431486Y-121006892D01*
X175310819Y-120777000D01*
X174117000Y-120777000D01*
X173863000Y-120777000D01*
X173843000Y-120777000D01*
X173843000Y-120523000D01*
X173863000Y-120523000D01*
X173863000Y-119329845D01*
X174117000Y-119329845D01*
X174117000Y-120523000D01*
X175310819Y-120523000D01*
X175431486Y-120293108D01*
X175185183Y-119768642D01*
X174756924Y-119378355D01*
X174346890Y-119208524D01*
X174117000Y-119329845D01*
X173863000Y-119329845D01*
X173633110Y-119208524D01*
X173223076Y-119378355D01*
X172794817Y-119768642D01*
X172727702Y-119911553D01*
X172500054Y-119570853D01*
X172018285Y-119248946D01*
X171450000Y-119135907D01*
X170881715Y-119248946D01*
X170399946Y-119570853D01*
X170180000Y-119900026D01*
X169960054Y-119570853D01*
X169553208Y-119299008D01*
X169730167Y-119299162D01*
X170073943Y-119157117D01*
X170337192Y-118894327D01*
X170479838Y-118550799D01*
X170480162Y-118178833D01*
X170405000Y-117996927D01*
X170405000Y-116885750D01*
X174235000Y-116885750D01*
X174235000Y-117476310D01*
X174331673Y-117709699D01*
X174510302Y-117888327D01*
X174743691Y-117985000D01*
X175584250Y-117985000D01*
X175743000Y-117826250D01*
X175743000Y-116727000D01*
X174393750Y-116727000D01*
X174235000Y-116885750D01*
X170405000Y-116885750D01*
X170405000Y-116847440D01*
X170570000Y-116847440D01*
X170805317Y-116803162D01*
X171021441Y-116664090D01*
X171166431Y-116451890D01*
X171217440Y-116200000D01*
X171217440Y-115135000D01*
X174238554Y-115135000D01*
X174266838Y-115285317D01*
G36*
X166497000Y-110363000D02*
X167690155Y-110363000D01*
X167811476Y-110133110D01*
X167641645Y-109723076D01*
X167251358Y-109294817D01*
X167114939Y-109230751D01*
X167136924Y-109221645D01*
X167565183Y-108831358D01*
X167632298Y-108688447D01*
X167859946Y-109029147D01*
X168341715Y-109351054D01*
X168910000Y-109464093D01*
X169478285Y-109351054D01*
X169960054Y-109029147D01*
X170180000Y-108699974D01*
X170399946Y-109029147D01*
X170881715Y-109351054D01*
X171450000Y-109464093D01*
X172018285Y-109351054D01*
X172500054Y-109029147D01*
X172720000Y-108699974D01*
X172939946Y-109029147D01*
X173421715Y-109351054D01*
X173990000Y-109464093D01*
X174061513Y-109449868D01*
X174860000Y-110248355D01*
X174860000Y-110604442D01*
X174634683Y-110646838D01*
X174418559Y-110785910D01*
X174279110Y-110990000D01*
X173496000Y-110990000D01*
X173109490Y-111066882D01*
X172781822Y-111285822D01*
X172767822Y-111299822D01*
X172548882Y-111627490D01*
X172472000Y-112014000D01*
X172548882Y-112400510D01*
X172767822Y-112728178D01*
X173095490Y-112947118D01*
X173482000Y-113024000D01*
X173552382Y-113010000D01*
X174282721Y-113010000D01*
X174373759Y-113151477D01*
X174273569Y-113298110D01*
X174239773Y-113465000D01*
X171217440Y-113465000D01*
X171217440Y-112400000D01*
X171173162Y-112164683D01*
X171034090Y-111948559D01*
X170821890Y-111803569D01*
X170570000Y-111752560D01*
X168570000Y-111752560D01*
X168334683Y-111796838D01*
X168118559Y-111935910D01*
X167973569Y-112148110D01*
X167922560Y-112400000D01*
X167922560Y-116200000D01*
X167966838Y-116435317D01*
X168105910Y-116651441D01*
X168318110Y-116796431D01*
X168570000Y-116847440D01*
X168735000Y-116847440D01*
X168735000Y-117876559D01*
X168610162Y-118177201D01*
X168609838Y-118549167D01*
X168751883Y-118892943D01*
X169014673Y-119156192D01*
X169017150Y-119157220D01*
X168910000Y-119135907D01*
X168341715Y-119248946D01*
X167859946Y-119570853D01*
X167640000Y-119900026D01*
X167420054Y-119570853D01*
X167127198Y-119375173D01*
X167449147Y-119160054D01*
X167771054Y-118678285D01*
X167884093Y-118110000D01*
X167771054Y-117541715D01*
X167449147Y-117059946D01*
X167119974Y-116840000D01*
X167449147Y-116620054D01*
X167771054Y-116138285D01*
X167884093Y-115570000D01*
X167771054Y-115001715D01*
X167449147Y-114519946D01*
X167119974Y-114300000D01*
X167449147Y-114080054D01*
X167771054Y-113598285D01*
X167884093Y-113030000D01*
X167771054Y-112461715D01*
X167449147Y-111979946D01*
X167108447Y-111752298D01*
X167251358Y-111685183D01*
X167641645Y-111256924D01*
X167811476Y-110846890D01*
X167690155Y-110617000D01*
X166497000Y-110617000D01*
X166497000Y-110637000D01*
X166243000Y-110637000D01*
X166243000Y-110617000D01*
X166223000Y-110617000D01*
X166223000Y-110363000D01*
X166243000Y-110363000D01*
X166243000Y-108077000D01*
X166497000Y-108077000D01*
X166497000Y-110363000D01*
X166497000Y-110363000D01*
G37*
X166497000Y-110363000D02*
X167690155Y-110363000D01*
X167811476Y-110133110D01*
X167641645Y-109723076D01*
X167251358Y-109294817D01*
X167114939Y-109230751D01*
X167136924Y-109221645D01*
X167565183Y-108831358D01*
X167632298Y-108688447D01*
X167859946Y-109029147D01*
X168341715Y-109351054D01*
X168910000Y-109464093D01*
X169478285Y-109351054D01*
X169960054Y-109029147D01*
X170180000Y-108699974D01*
X170399946Y-109029147D01*
X170881715Y-109351054D01*
X171450000Y-109464093D01*
X172018285Y-109351054D01*
X172500054Y-109029147D01*
X172720000Y-108699974D01*
X172939946Y-109029147D01*
X173421715Y-109351054D01*
X173990000Y-109464093D01*
X174061513Y-109449868D01*
X174860000Y-110248355D01*
X174860000Y-110604442D01*
X174634683Y-110646838D01*
X174418559Y-110785910D01*
X174279110Y-110990000D01*
X173496000Y-110990000D01*
X173109490Y-111066882D01*
X172781822Y-111285822D01*
X172767822Y-111299822D01*
X172548882Y-111627490D01*
X172472000Y-112014000D01*
X172548882Y-112400510D01*
X172767822Y-112728178D01*
X173095490Y-112947118D01*
X173482000Y-113024000D01*
X173552382Y-113010000D01*
X174282721Y-113010000D01*
X174373759Y-113151477D01*
X174273569Y-113298110D01*
X174239773Y-113465000D01*
X171217440Y-113465000D01*
X171217440Y-112400000D01*
X171173162Y-112164683D01*
X171034090Y-111948559D01*
X170821890Y-111803569D01*
X170570000Y-111752560D01*
X168570000Y-111752560D01*
X168334683Y-111796838D01*
X168118559Y-111935910D01*
X167973569Y-112148110D01*
X167922560Y-112400000D01*
X167922560Y-116200000D01*
X167966838Y-116435317D01*
X168105910Y-116651441D01*
X168318110Y-116796431D01*
X168570000Y-116847440D01*
X168735000Y-116847440D01*
X168735000Y-117876559D01*
X168610162Y-118177201D01*
X168609838Y-118549167D01*
X168751883Y-118892943D01*
X169014673Y-119156192D01*
X169017150Y-119157220D01*
X168910000Y-119135907D01*
X168341715Y-119248946D01*
X167859946Y-119570853D01*
X167640000Y-119900026D01*
X167420054Y-119570853D01*
X167127198Y-119375173D01*
X167449147Y-119160054D01*
X167771054Y-118678285D01*
X167884093Y-118110000D01*
X167771054Y-117541715D01*
X167449147Y-117059946D01*
X167119974Y-116840000D01*
X167449147Y-116620054D01*
X167771054Y-116138285D01*
X167884093Y-115570000D01*
X167771054Y-115001715D01*
X167449147Y-114519946D01*
X167119974Y-114300000D01*
X167449147Y-114080054D01*
X167771054Y-113598285D01*
X167884093Y-113030000D01*
X167771054Y-112461715D01*
X167449147Y-111979946D01*
X167108447Y-111752298D01*
X167251358Y-111685183D01*
X167641645Y-111256924D01*
X167811476Y-110846890D01*
X167690155Y-110617000D01*
X166497000Y-110617000D01*
X166497000Y-110637000D01*
X166243000Y-110637000D01*
X166243000Y-110617000D01*
X166223000Y-110617000D01*
X166223000Y-110363000D01*
X166243000Y-110363000D01*
X166243000Y-108077000D01*
X166497000Y-108077000D01*
X166497000Y-110363000D01*
G36*
X177471000Y-106593092D02*
X177471000Y-111011323D01*
X177334090Y-110798559D01*
X177121890Y-110653569D01*
X176880000Y-110604585D01*
X176880000Y-109830000D01*
X176803118Y-109443490D01*
X176803118Y-109443489D01*
X176703778Y-109294817D01*
X176584178Y-109115822D01*
X176584175Y-109115820D01*
X175470429Y-108002073D01*
X175475000Y-107979093D01*
X175475000Y-107920907D01*
X175361961Y-107352622D01*
X175040054Y-106870853D01*
X174558285Y-106548946D01*
X173990000Y-106435907D01*
X173421715Y-106548946D01*
X172939946Y-106870853D01*
X172720000Y-107200026D01*
X172500054Y-106870853D01*
X172018285Y-106548946D01*
X171450000Y-106435907D01*
X170881715Y-106548946D01*
X170399946Y-106870853D01*
X170180000Y-107200026D01*
X169960054Y-106870853D01*
X169478285Y-106548946D01*
X168910000Y-106435907D01*
X168341715Y-106548946D01*
X167859946Y-106870853D01*
X167640000Y-107200026D01*
X167420054Y-106870853D01*
X166938285Y-106548946D01*
X166370000Y-106435907D01*
X165801715Y-106548946D01*
X165319946Y-106870853D01*
X165092298Y-107211553D01*
X165025183Y-107068642D01*
X164596924Y-106678355D01*
X164186890Y-106508524D01*
X163957000Y-106629845D01*
X163957000Y-107315000D01*
X163703000Y-107315000D01*
X163703000Y-106629845D01*
X163473110Y-106508524D01*
X163063076Y-106678355D01*
X162702000Y-107007416D01*
X162702000Y-106993691D01*
X162605327Y-106760302D01*
X162426699Y-106581673D01*
X162193310Y-106485000D01*
X161702750Y-106485000D01*
X161544000Y-106643750D01*
X161544000Y-107315000D01*
X161290000Y-107315000D01*
X161290000Y-106643750D01*
X161175171Y-106528921D01*
X161584092Y-106120000D01*
X176997908Y-106120000D01*
X177471000Y-106593092D01*
X177471000Y-106593092D01*
G37*
X177471000Y-106593092D02*
X177471000Y-111011323D01*
X177334090Y-110798559D01*
X177121890Y-110653569D01*
X176880000Y-110604585D01*
X176880000Y-109830000D01*
X176803118Y-109443490D01*
X176803118Y-109443489D01*
X176703778Y-109294817D01*
X176584178Y-109115822D01*
X176584175Y-109115820D01*
X175470429Y-108002073D01*
X175475000Y-107979093D01*
X175475000Y-107920907D01*
X175361961Y-107352622D01*
X175040054Y-106870853D01*
X174558285Y-106548946D01*
X173990000Y-106435907D01*
X173421715Y-106548946D01*
X172939946Y-106870853D01*
X172720000Y-107200026D01*
X172500054Y-106870853D01*
X172018285Y-106548946D01*
X171450000Y-106435907D01*
X170881715Y-106548946D01*
X170399946Y-106870853D01*
X170180000Y-107200026D01*
X169960054Y-106870853D01*
X169478285Y-106548946D01*
X168910000Y-106435907D01*
X168341715Y-106548946D01*
X167859946Y-106870853D01*
X167640000Y-107200026D01*
X167420054Y-106870853D01*
X166938285Y-106548946D01*
X166370000Y-106435907D01*
X165801715Y-106548946D01*
X165319946Y-106870853D01*
X165092298Y-107211553D01*
X165025183Y-107068642D01*
X164596924Y-106678355D01*
X164186890Y-106508524D01*
X163957000Y-106629845D01*
X163957000Y-107315000D01*
X163703000Y-107315000D01*
X163703000Y-106629845D01*
X163473110Y-106508524D01*
X163063076Y-106678355D01*
X162702000Y-107007416D01*
X162702000Y-106993691D01*
X162605327Y-106760302D01*
X162426699Y-106581673D01*
X162193310Y-106485000D01*
X161702750Y-106485000D01*
X161544000Y-106643750D01*
X161544000Y-107315000D01*
X161290000Y-107315000D01*
X161290000Y-106643750D01*
X161175171Y-106528921D01*
X161584092Y-106120000D01*
X176997908Y-106120000D01*
X177471000Y-106593092D01*
M02*
