M48
;DRILL file {KiCad 4.0.7} date 2018 April 02, Monday 17:07:18
;FORMAT={-:-/ absolute / inch / decimal}
FMAT,2
INCH,TZ
T1C0.016
T2C0.039
%
G90
G05
M72
T1
X5.785Y-3.58
X5.785Y-3.895
X5.845Y-3.555
X5.845Y-3.915
X5.865Y-3.575
X5.865Y-3.895
X5.885Y-3.555
X5.885Y-3.915
X5.905Y-3.575
X5.905Y-3.895
X5.925Y-3.555
X5.925Y-3.915
X5.94Y-3.645
X5.94Y-3.825
X5.945Y-3.575
X5.945Y-3.895
X5.965Y-3.555
X5.965Y-3.915
X5.985Y-3.575
X5.985Y-3.895
T2
X5.56Y-3.485
X5.56Y-3.585
X5.56Y-3.685
X5.56Y-3.785
X5.56Y-3.885
X5.56Y-3.985
X5.66Y-3.485
X5.66Y-3.585
X5.66Y-3.685
X5.66Y-3.785
X5.66Y-3.885
X5.66Y-3.985
X5.76Y-3.485
X5.76Y-3.985
X5.86Y-3.485
X5.86Y-3.985
X5.96Y-3.485
X5.96Y-3.985
T0
M30
