G04 #@! TF.FileFunction,Soldermask,Bot*
%FSLAX46Y46*%
G04 Gerber Fmt 4.6, Leading zero omitted, Abs format (unit mm)*
G04 Created by KiCad (PCBNEW 4.0.7) date 2018 April 02, Monday 02:54:30*
%MOMM*%
%LPD*%
G01*
G04 APERTURE LIST*
%ADD10C,0.100000*%
%ADD11C,0.125000*%
%ADD12C,0.112500*%
%ADD13O,2.100000X2.100000*%
%ADD14R,1.900000X1.650000*%
G04 APERTURE END LIST*
D10*
D11*
X176733310Y-116837202D02*
X176733310Y-116551488D01*
X176233310Y-116756845D02*
X176733310Y-116694345D01*
X176233310Y-116447321D02*
X176733310Y-116384821D01*
X176495214Y-116414583D02*
X176495214Y-116128869D01*
X176233310Y-116161607D02*
X176733310Y-116099107D01*
X176233310Y-115923511D02*
X176733310Y-115861011D01*
X176257119Y-115706250D02*
X176233310Y-115637797D01*
X176233310Y-115518750D01*
X176257119Y-115468155D01*
X176280929Y-115441368D01*
X176328548Y-115411607D01*
X176376167Y-115405655D01*
X176423786Y-115423511D01*
X176447595Y-115444345D01*
X176471405Y-115488988D01*
X176495214Y-115581250D01*
X176519024Y-115625892D01*
X176542833Y-115646725D01*
X176590452Y-115664583D01*
X176638071Y-115658631D01*
X176685690Y-115628868D01*
X176709500Y-115602083D01*
X176733310Y-115551488D01*
X176733310Y-115432440D01*
X176709500Y-115363988D01*
X176233310Y-114828274D02*
X176733310Y-114765774D01*
X176376167Y-114643751D01*
X176733310Y-114432441D01*
X176233310Y-114494941D01*
X176376167Y-114262798D02*
X176376167Y-114024703D01*
X176233310Y-114328274D02*
X176733310Y-114099107D01*
X176233310Y-113994941D01*
X176280929Y-113536607D02*
X176257119Y-113563394D01*
X176233310Y-113637798D01*
X176233310Y-113685417D01*
X176257119Y-113753870D01*
X176304738Y-113795536D01*
X176352357Y-113813393D01*
X176447595Y-113825298D01*
X176519024Y-113816369D01*
X176614262Y-113780655D01*
X176661881Y-113750893D01*
X176709500Y-113697322D01*
X176733310Y-113622917D01*
X176733310Y-113575298D01*
X176709500Y-113506846D01*
X176685690Y-113486012D01*
X176233310Y-113328274D02*
X176733310Y-113265774D01*
X176495214Y-113295536D02*
X176495214Y-113009822D01*
X176233310Y-113042560D02*
X176733310Y-112980060D01*
X176233310Y-112804464D02*
X176733310Y-112741964D01*
X176233310Y-112566369D02*
X176733310Y-112503869D01*
X176233310Y-112280655D01*
X176733310Y-112218155D01*
X176495214Y-112009821D02*
X176495214Y-111843155D01*
X176233310Y-111804464D02*
X176233310Y-112042559D01*
X176733310Y-111980059D01*
X176733310Y-111741964D01*
X175358310Y-116923511D02*
X175858310Y-116861011D01*
X175620214Y-116890773D02*
X175620214Y-116605059D01*
X175358310Y-116637797D02*
X175858310Y-116575297D01*
X175501167Y-116405654D02*
X175501167Y-116167559D01*
X175358310Y-116471130D02*
X175858310Y-116241963D01*
X175358310Y-116137797D01*
X175382119Y-115991964D02*
X175358310Y-115923511D01*
X175358310Y-115804464D01*
X175382119Y-115753869D01*
X175405929Y-115727082D01*
X175453548Y-115697321D01*
X175501167Y-115691369D01*
X175548786Y-115709225D01*
X175572595Y-115730059D01*
X175596405Y-115774702D01*
X175620214Y-115866964D01*
X175644024Y-115911606D01*
X175667833Y-115932439D01*
X175715452Y-115950297D01*
X175763071Y-115944345D01*
X175810690Y-115914582D01*
X175834500Y-115887797D01*
X175858310Y-115837202D01*
X175858310Y-115718154D01*
X175834500Y-115649702D01*
X175358310Y-115113988D02*
X175858310Y-115051488D01*
X175358310Y-114828274D01*
X175858310Y-114765774D01*
X175858310Y-114432440D02*
X175858310Y-114337202D01*
X175834500Y-114292559D01*
X175786881Y-114250892D01*
X175691643Y-114238988D01*
X175524976Y-114259821D01*
X175429738Y-114295535D01*
X175382119Y-114349107D01*
X175358310Y-114399702D01*
X175358310Y-114494940D01*
X175382119Y-114539583D01*
X175429738Y-114581249D01*
X175524976Y-114593154D01*
X175691643Y-114572321D01*
X175786881Y-114536606D01*
X175834500Y-114483035D01*
X175858310Y-114432440D01*
X175620214Y-113486012D02*
X175596405Y-113417559D01*
X175572595Y-113396726D01*
X175524976Y-113378868D01*
X175453548Y-113387797D01*
X175405929Y-113417559D01*
X175382119Y-113444345D01*
X175358310Y-113494940D01*
X175358310Y-113685416D01*
X175858310Y-113622916D01*
X175858310Y-113456250D01*
X175834500Y-113411607D01*
X175810690Y-113390773D01*
X175763071Y-113372917D01*
X175715452Y-113378869D01*
X175667833Y-113408630D01*
X175644024Y-113435416D01*
X175620214Y-113486012D01*
X175620214Y-113652678D01*
X175358310Y-112899702D02*
X175596405Y-113036607D01*
X175358310Y-113185416D02*
X175858310Y-113122916D01*
X175858310Y-112932440D01*
X175834500Y-112887797D01*
X175810690Y-112866964D01*
X175763071Y-112849107D01*
X175691643Y-112858035D01*
X175644024Y-112887797D01*
X175620214Y-112914583D01*
X175596405Y-112965178D01*
X175596405Y-113155654D01*
X175501167Y-112691369D02*
X175501167Y-112453274D01*
X175358310Y-112756845D02*
X175858310Y-112527678D01*
X175358310Y-112423512D01*
X175358310Y-112256845D02*
X175858310Y-112194345D01*
X175358310Y-112018750D02*
X175858310Y-111956250D01*
X175358310Y-111733036D01*
X175858310Y-111670536D01*
D12*
X174998429Y-116883482D02*
X174634143Y-116929018D01*
X174591286Y-116912947D01*
X174569857Y-116894197D01*
X174548429Y-116854018D01*
X174548429Y-116768304D01*
X174569857Y-116722768D01*
X174591286Y-116698661D01*
X174634143Y-116671875D01*
X174998429Y-116626339D01*
X174569857Y-116487054D02*
X174548429Y-116425446D01*
X174548429Y-116318303D01*
X174569857Y-116272768D01*
X174591286Y-116248660D01*
X174634143Y-116221875D01*
X174677000Y-116216518D01*
X174719857Y-116232589D01*
X174741286Y-116251339D01*
X174762714Y-116291518D01*
X174784143Y-116374553D01*
X174805571Y-116414733D01*
X174827000Y-116433482D01*
X174869857Y-116449554D01*
X174912714Y-116444197D01*
X174955571Y-116417411D01*
X174977000Y-116393304D01*
X174998429Y-116347767D01*
X174998429Y-116240625D01*
X174977000Y-116179018D01*
X174784143Y-116010268D02*
X174784143Y-115860268D01*
X174548429Y-115825446D02*
X174548429Y-116039732D01*
X174998429Y-115983482D01*
X174998429Y-115769196D01*
X174762714Y-115177233D02*
X174548429Y-115204018D01*
X174998429Y-115297768D02*
X174762714Y-115177233D01*
X174998429Y-114997768D01*
X174998429Y-114762054D02*
X174998429Y-114676340D01*
X174977000Y-114636161D01*
X174934143Y-114598661D01*
X174848429Y-114587947D01*
X174698429Y-114606697D01*
X174612714Y-114638840D01*
X174569857Y-114687054D01*
X174548429Y-114732590D01*
X174548429Y-114818304D01*
X174569857Y-114858483D01*
X174612714Y-114895983D01*
X174698429Y-114906697D01*
X174848429Y-114887947D01*
X174934143Y-114855804D01*
X174977000Y-114807590D01*
X174998429Y-114762054D01*
X174998429Y-114376339D02*
X174634143Y-114421875D01*
X174591286Y-114405804D01*
X174569857Y-114387054D01*
X174548429Y-114346875D01*
X174548429Y-114261161D01*
X174569857Y-114215625D01*
X174591286Y-114191518D01*
X174634143Y-114164732D01*
X174998429Y-114119196D01*
X174548429Y-113704017D02*
X174762714Y-113827232D01*
X174548429Y-113961160D02*
X174998429Y-113904910D01*
X174998429Y-113733482D01*
X174977000Y-113693303D01*
X174955571Y-113674554D01*
X174912714Y-113658482D01*
X174848429Y-113666517D01*
X174805571Y-113693304D01*
X174784143Y-113717410D01*
X174762714Y-113762947D01*
X174762714Y-113934375D01*
X174998429Y-113026339D02*
X174998429Y-112940625D01*
X174977000Y-112900446D01*
X174934143Y-112862946D01*
X174848429Y-112852232D01*
X174698429Y-112870982D01*
X174612714Y-112903125D01*
X174569857Y-112951339D01*
X174548429Y-112996875D01*
X174548429Y-113082589D01*
X174569857Y-113122768D01*
X174612714Y-113160268D01*
X174698429Y-113170982D01*
X174848429Y-113152232D01*
X174934143Y-113120089D01*
X174977000Y-113071875D01*
X174998429Y-113026339D01*
X174998429Y-112683481D02*
X174548429Y-112632588D01*
X174869857Y-112506696D01*
X174548429Y-112461160D01*
X174998429Y-112297767D01*
X174548429Y-112182588D02*
X174998429Y-112126338D01*
X174548429Y-111925445D01*
X174998429Y-111869195D01*
X174591286Y-111705802D02*
X174569857Y-111687053D01*
X174548429Y-111711159D01*
X174569857Y-111729910D01*
X174591286Y-111705802D01*
X174548429Y-111711159D01*
X174719857Y-111689731D02*
X174977000Y-111679017D01*
X174998429Y-111654909D01*
X174977000Y-111636160D01*
X174719857Y-111689731D01*
X174998429Y-111654909D01*
D13*
X163830000Y-120650000D03*
X166370000Y-120650000D03*
X168910000Y-120650000D03*
X171450000Y-120650000D03*
X173990000Y-120650000D03*
X163830000Y-107950000D03*
X166370000Y-107950000D03*
X168910000Y-107950000D03*
X171450000Y-107950000D03*
X173990000Y-107950000D03*
X166370000Y-110490000D03*
X163830000Y-110490000D03*
X166370000Y-113030000D03*
X163830000Y-113030000D03*
X166370000Y-115570000D03*
X163830000Y-115570000D03*
X166370000Y-118110000D03*
X163830000Y-118110000D03*
D14*
X169565000Y-116586000D03*
X172065000Y-116586000D03*
X172065000Y-112014000D03*
X169565000Y-112014000D03*
M02*
