G04 #@! TF.FileFunction,Legend,Bot*
%FSLAX46Y46*%
G04 Gerber Fmt 4.6, Leading zero omitted, Abs format (unit mm)*
G04 Created by KiCad (PCBNEW 4.0.7) date 2018 April 02, Monday 02:54:30*
%MOMM*%
%LPD*%
G01*
G04 APERTURE LIST*
%ADD10C,0.100000*%
%ADD11C,0.175000*%
%ADD12C,0.150000*%
%ADD13C,0.120000*%
G04 APERTURE END LIST*
D10*
D11*
X176153000Y-110359915D02*
X176119667Y-110397416D01*
X176086333Y-110501582D01*
X176086333Y-110568248D01*
X176119667Y-110664082D01*
X176186333Y-110722415D01*
X176253000Y-110747415D01*
X176386333Y-110764082D01*
X176486333Y-110751582D01*
X176619667Y-110701582D01*
X176686333Y-110659915D01*
X176753000Y-110584915D01*
X176786333Y-110480748D01*
X176786333Y-110414082D01*
X176753000Y-110318249D01*
X176719667Y-110289082D01*
X176286333Y-110076582D02*
X176286333Y-109743248D01*
X176086333Y-110168248D02*
X176786333Y-109847415D01*
X176086333Y-109701582D01*
X176786333Y-109380748D02*
X176219667Y-109451582D01*
X176153000Y-109426582D01*
X176119667Y-109397416D01*
X176086333Y-109334915D01*
X176086333Y-109201582D01*
X176119667Y-109130749D01*
X176153000Y-109093249D01*
X176219667Y-109051582D01*
X176786333Y-108980748D01*
X176786333Y-108747415D02*
X176786333Y-108347415D01*
X176086333Y-108634915D02*
X176786333Y-108547415D01*
X176086333Y-108201582D02*
X176786333Y-108114082D01*
X176786333Y-107647416D02*
X176786333Y-107514083D01*
X176753000Y-107451583D01*
X176686333Y-107393249D01*
X176553000Y-107376583D01*
X176319667Y-107405750D01*
X176186333Y-107455749D01*
X176119667Y-107530750D01*
X176086333Y-107601583D01*
X176086333Y-107734916D01*
X176119667Y-107797417D01*
X176186333Y-107855749D01*
X176319667Y-107872417D01*
X176553000Y-107843250D01*
X176686333Y-107793249D01*
X176753000Y-107718250D01*
X176786333Y-107647416D01*
X176086333Y-107134916D02*
X176786333Y-107047416D01*
X176086333Y-106734916D01*
X176786333Y-106647416D01*
X176153000Y-121535915D02*
X176119667Y-121573416D01*
X176086333Y-121677582D01*
X176086333Y-121744248D01*
X176119667Y-121840082D01*
X176186333Y-121898415D01*
X176253000Y-121923415D01*
X176386333Y-121940082D01*
X176486333Y-121927582D01*
X176619667Y-121877582D01*
X176686333Y-121835915D01*
X176753000Y-121760915D01*
X176786333Y-121656748D01*
X176786333Y-121590082D01*
X176753000Y-121494249D01*
X176719667Y-121465082D01*
X176286333Y-121252582D02*
X176286333Y-120919248D01*
X176086333Y-121344248D02*
X176786333Y-121023415D01*
X176086333Y-120877582D01*
X176786333Y-120556748D02*
X176219667Y-120627582D01*
X176153000Y-120602582D01*
X176119667Y-120573416D01*
X176086333Y-120510915D01*
X176086333Y-120377582D01*
X176119667Y-120306749D01*
X176153000Y-120269249D01*
X176219667Y-120227582D01*
X176786333Y-120156748D01*
X176786333Y-119923415D02*
X176786333Y-119523415D01*
X176086333Y-119810915D02*
X176786333Y-119723415D01*
X176086333Y-119377582D02*
X176786333Y-119290082D01*
X176786333Y-118823416D02*
X176786333Y-118690083D01*
X176753000Y-118627583D01*
X176686333Y-118569249D01*
X176553000Y-118552583D01*
X176319667Y-118581750D01*
X176186333Y-118631749D01*
X176119667Y-118706750D01*
X176086333Y-118777583D01*
X176086333Y-118910916D01*
X176119667Y-118973417D01*
X176186333Y-119031749D01*
X176319667Y-119048417D01*
X176553000Y-119019250D01*
X176686333Y-118969249D01*
X176753000Y-118894250D01*
X176786333Y-118823416D01*
X176086333Y-118310916D02*
X176786333Y-118223416D01*
X176086333Y-117910916D01*
X176786333Y-117823416D01*
D12*
X169297143Y-115812857D02*
X169211429Y-115841429D01*
X169068572Y-115841429D01*
X169011429Y-115812857D01*
X168982858Y-115784286D01*
X168954286Y-115727143D01*
X168954286Y-115670000D01*
X168982858Y-115612857D01*
X169011429Y-115584286D01*
X169068572Y-115555714D01*
X169182858Y-115527143D01*
X169240000Y-115498571D01*
X169268572Y-115470000D01*
X169297143Y-115412857D01*
X169297143Y-115355714D01*
X169268572Y-115298571D01*
X169240000Y-115270000D01*
X169182858Y-115241429D01*
X169040000Y-115241429D01*
X168954286Y-115270000D01*
X168354286Y-115784286D02*
X168382857Y-115812857D01*
X168468571Y-115841429D01*
X168525714Y-115841429D01*
X168611429Y-115812857D01*
X168668571Y-115755714D01*
X168697143Y-115698571D01*
X168725714Y-115584286D01*
X168725714Y-115498571D01*
X168697143Y-115384286D01*
X168668571Y-115327143D01*
X168611429Y-115270000D01*
X168525714Y-115241429D01*
X168468571Y-115241429D01*
X168382857Y-115270000D01*
X168354286Y-115298571D01*
X168097143Y-115841429D02*
X168097143Y-115241429D01*
X167754286Y-115841429D02*
X168011429Y-115498571D01*
X167754286Y-115241429D02*
X168097143Y-115584286D01*
X162417143Y-118381429D02*
X162417143Y-117781429D01*
X161788572Y-118381429D02*
X161988572Y-118095714D01*
X162131429Y-118381429D02*
X162131429Y-117781429D01*
X161902857Y-117781429D01*
X161845715Y-117810000D01*
X161817143Y-117838571D01*
X161788572Y-117895714D01*
X161788572Y-117981429D01*
X161817143Y-118038571D01*
X161845715Y-118067143D01*
X161902857Y-118095714D01*
X162131429Y-118095714D01*
X161131429Y-118438571D02*
X161188572Y-118410000D01*
X161245715Y-118352857D01*
X161331429Y-118267143D01*
X161388572Y-118238571D01*
X161445715Y-118238571D01*
X161417143Y-118381429D02*
X161474286Y-118352857D01*
X161531429Y-118295714D01*
X161560000Y-118181429D01*
X161560000Y-117981429D01*
X161531429Y-117867143D01*
X161474286Y-117810000D01*
X161417143Y-117781429D01*
X161302857Y-117781429D01*
X161245715Y-117810000D01*
X161188572Y-117867143D01*
X161160000Y-117981429D01*
X161160000Y-118181429D01*
X161188572Y-118295714D01*
X161245715Y-118352857D01*
X161302857Y-118381429D01*
X161417143Y-118381429D01*
X169668571Y-118381429D02*
X169668571Y-117781429D01*
X169468571Y-118210000D01*
X169268571Y-117781429D01*
X169268571Y-118381429D01*
X168982857Y-118381429D02*
X168982857Y-117781429D01*
X168725714Y-118352857D02*
X168640000Y-118381429D01*
X168497143Y-118381429D01*
X168440000Y-118352857D01*
X168411429Y-118324286D01*
X168382857Y-118267143D01*
X168382857Y-118210000D01*
X168411429Y-118152857D01*
X168440000Y-118124286D01*
X168497143Y-118095714D01*
X168611429Y-118067143D01*
X168668571Y-118038571D01*
X168697143Y-118010000D01*
X168725714Y-117952857D01*
X168725714Y-117895714D01*
X168697143Y-117838571D01*
X168668571Y-117810000D01*
X168611429Y-117781429D01*
X168468571Y-117781429D01*
X168382857Y-117810000D01*
X168011428Y-117781429D02*
X167897142Y-117781429D01*
X167840000Y-117810000D01*
X167782857Y-117867143D01*
X167754285Y-117981429D01*
X167754285Y-118181429D01*
X167782857Y-118295714D01*
X167840000Y-118352857D01*
X167897142Y-118381429D01*
X168011428Y-118381429D01*
X168068571Y-118352857D01*
X168125714Y-118295714D01*
X168154285Y-118181429D01*
X168154285Y-117981429D01*
X168125714Y-117867143D01*
X168068571Y-117810000D01*
X168011428Y-117781429D01*
X162417143Y-115841429D02*
X162417143Y-115241429D01*
X162217143Y-115670000D01*
X162017143Y-115241429D01*
X162017143Y-115841429D01*
X161617143Y-115241429D02*
X161502857Y-115241429D01*
X161445715Y-115270000D01*
X161388572Y-115327143D01*
X161360000Y-115441429D01*
X161360000Y-115641429D01*
X161388572Y-115755714D01*
X161445715Y-115812857D01*
X161502857Y-115841429D01*
X161617143Y-115841429D01*
X161674286Y-115812857D01*
X161731429Y-115755714D01*
X161760000Y-115641429D01*
X161760000Y-115441429D01*
X161731429Y-115327143D01*
X161674286Y-115270000D01*
X161617143Y-115241429D01*
X161131429Y-115812857D02*
X161045715Y-115841429D01*
X160902858Y-115841429D01*
X160845715Y-115812857D01*
X160817144Y-115784286D01*
X160788572Y-115727143D01*
X160788572Y-115670000D01*
X160817144Y-115612857D01*
X160845715Y-115584286D01*
X160902858Y-115555714D01*
X161017144Y-115527143D01*
X161074286Y-115498571D01*
X161102858Y-115470000D01*
X161131429Y-115412857D01*
X161131429Y-115355714D01*
X161102858Y-115298571D01*
X161074286Y-115270000D01*
X161017144Y-115241429D01*
X160874286Y-115241429D01*
X160788572Y-115270000D01*
X160531429Y-115841429D02*
X160531429Y-115241429D01*
X162074286Y-113244286D02*
X162102857Y-113272857D01*
X162188571Y-113301429D01*
X162245714Y-113301429D01*
X162331429Y-113272857D01*
X162388571Y-113215714D01*
X162417143Y-113158571D01*
X162445714Y-113044286D01*
X162445714Y-112958571D01*
X162417143Y-112844286D01*
X162388571Y-112787143D01*
X162331429Y-112730000D01*
X162245714Y-112701429D01*
X162188571Y-112701429D01*
X162102857Y-112730000D01*
X162074286Y-112758571D01*
X161845714Y-113272857D02*
X161760000Y-113301429D01*
X161617143Y-113301429D01*
X161560000Y-113272857D01*
X161531429Y-113244286D01*
X161502857Y-113187143D01*
X161502857Y-113130000D01*
X161531429Y-113072857D01*
X161560000Y-113044286D01*
X161617143Y-113015714D01*
X161731429Y-112987143D01*
X161788571Y-112958571D01*
X161817143Y-112930000D01*
X161845714Y-112872857D01*
X161845714Y-112815714D01*
X161817143Y-112758571D01*
X161788571Y-112730000D01*
X161731429Y-112701429D01*
X161588571Y-112701429D01*
X161502857Y-112730000D01*
X161245714Y-113301429D02*
X161245714Y-112701429D01*
X160902857Y-113301429D01*
X160902857Y-112701429D01*
X168297143Y-113244286D02*
X168325714Y-113272857D01*
X168411428Y-113301429D01*
X168468571Y-113301429D01*
X168554286Y-113272857D01*
X168611428Y-113215714D01*
X168640000Y-113158571D01*
X168668571Y-113044286D01*
X168668571Y-112958571D01*
X168640000Y-112844286D01*
X168611428Y-112787143D01*
X168554286Y-112730000D01*
X168468571Y-112701429D01*
X168411428Y-112701429D01*
X168325714Y-112730000D01*
X168297143Y-112758571D01*
X168040000Y-112987143D02*
X167840000Y-112987143D01*
X167754286Y-113301429D02*
X168040000Y-113301429D01*
X168040000Y-112701429D01*
X167754286Y-112701429D01*
X169011428Y-110190000D02*
X169068571Y-110161429D01*
X169154285Y-110161429D01*
X169240000Y-110190000D01*
X169297142Y-110247143D01*
X169325714Y-110304286D01*
X169354285Y-110418571D01*
X169354285Y-110504286D01*
X169325714Y-110618571D01*
X169297142Y-110675714D01*
X169240000Y-110732857D01*
X169154285Y-110761429D01*
X169097142Y-110761429D01*
X169011428Y-110732857D01*
X168982857Y-110704286D01*
X168982857Y-110504286D01*
X169097142Y-110504286D01*
X168725714Y-110761429D02*
X168725714Y-110161429D01*
X168382857Y-110761429D01*
X168382857Y-110161429D01*
X168097143Y-110761429D02*
X168097143Y-110161429D01*
X167954286Y-110161429D01*
X167868571Y-110190000D01*
X167811429Y-110247143D01*
X167782857Y-110304286D01*
X167754286Y-110418571D01*
X167754286Y-110504286D01*
X167782857Y-110618571D01*
X167811429Y-110675714D01*
X167868571Y-110732857D01*
X167954286Y-110761429D01*
X168097143Y-110761429D01*
X162502857Y-110161429D02*
X162302857Y-110761429D01*
X162102857Y-110161429D01*
X161645714Y-110732857D02*
X161702857Y-110761429D01*
X161817143Y-110761429D01*
X161874285Y-110732857D01*
X161902857Y-110704286D01*
X161931428Y-110647143D01*
X161931428Y-110475714D01*
X161902857Y-110418571D01*
X161874285Y-110390000D01*
X161817143Y-110361429D01*
X161702857Y-110361429D01*
X161645714Y-110390000D01*
X161131428Y-110732857D02*
X161188571Y-110761429D01*
X161302857Y-110761429D01*
X161359999Y-110732857D01*
X161388571Y-110704286D01*
X161417142Y-110647143D01*
X161417142Y-110475714D01*
X161388571Y-110418571D01*
X161359999Y-110390000D01*
X161302857Y-110361429D01*
X161188571Y-110361429D01*
X161131428Y-110390000D01*
X164544286Y-105716429D02*
X164344286Y-106316429D01*
X164144286Y-105716429D01*
X163687143Y-106287857D02*
X163744286Y-106316429D01*
X163858572Y-106316429D01*
X163915714Y-106287857D01*
X163944286Y-106259286D01*
X163972857Y-106202143D01*
X163972857Y-106030714D01*
X163944286Y-105973571D01*
X163915714Y-105945000D01*
X163858572Y-105916429D01*
X163744286Y-105916429D01*
X163687143Y-105945000D01*
X163172857Y-106287857D02*
X163230000Y-106316429D01*
X163344286Y-106316429D01*
X163401428Y-106287857D01*
X163430000Y-106259286D01*
X163458571Y-106202143D01*
X163458571Y-106030714D01*
X163430000Y-105973571D01*
X163401428Y-105945000D01*
X163344286Y-105916429D01*
X163230000Y-105916429D01*
X163172857Y-105945000D01*
X166827142Y-105745000D02*
X166884285Y-105716429D01*
X166969999Y-105716429D01*
X167055714Y-105745000D01*
X167112856Y-105802143D01*
X167141428Y-105859286D01*
X167169999Y-105973571D01*
X167169999Y-106059286D01*
X167141428Y-106173571D01*
X167112856Y-106230714D01*
X167055714Y-106287857D01*
X166969999Y-106316429D01*
X166912856Y-106316429D01*
X166827142Y-106287857D01*
X166798571Y-106259286D01*
X166798571Y-106059286D01*
X166912856Y-106059286D01*
X166541428Y-106316429D02*
X166541428Y-105716429D01*
X166198571Y-106316429D01*
X166198571Y-105716429D01*
X165912857Y-106316429D02*
X165912857Y-105716429D01*
X165770000Y-105716429D01*
X165684285Y-105745000D01*
X165627143Y-105802143D01*
X165598571Y-105859286D01*
X165570000Y-105973571D01*
X165570000Y-106059286D01*
X165598571Y-106173571D01*
X165627143Y-106230714D01*
X165684285Y-106287857D01*
X165770000Y-106316429D01*
X165912857Y-106316429D01*
X168995714Y-106259286D02*
X169024285Y-106287857D01*
X169109999Y-106316429D01*
X169167142Y-106316429D01*
X169252857Y-106287857D01*
X169309999Y-106230714D01*
X169338571Y-106173571D01*
X169367142Y-106059286D01*
X169367142Y-105973571D01*
X169338571Y-105859286D01*
X169309999Y-105802143D01*
X169252857Y-105745000D01*
X169167142Y-105716429D01*
X169109999Y-105716429D01*
X169024285Y-105745000D01*
X168995714Y-105773571D01*
X168738571Y-106002143D02*
X168538571Y-106002143D01*
X168452857Y-106316429D02*
X168738571Y-106316429D01*
X168738571Y-105716429D01*
X168452857Y-105716429D01*
X171864286Y-106259286D02*
X171892857Y-106287857D01*
X171978571Y-106316429D01*
X172035714Y-106316429D01*
X172121429Y-106287857D01*
X172178571Y-106230714D01*
X172207143Y-106173571D01*
X172235714Y-106059286D01*
X172235714Y-105973571D01*
X172207143Y-105859286D01*
X172178571Y-105802143D01*
X172121429Y-105745000D01*
X172035714Y-105716429D01*
X171978571Y-105716429D01*
X171892857Y-105745000D01*
X171864286Y-105773571D01*
X171635714Y-106287857D02*
X171550000Y-106316429D01*
X171407143Y-106316429D01*
X171350000Y-106287857D01*
X171321429Y-106259286D01*
X171292857Y-106202143D01*
X171292857Y-106145000D01*
X171321429Y-106087857D01*
X171350000Y-106059286D01*
X171407143Y-106030714D01*
X171521429Y-106002143D01*
X171578571Y-105973571D01*
X171607143Y-105945000D01*
X171635714Y-105887857D01*
X171635714Y-105830714D01*
X171607143Y-105773571D01*
X171578571Y-105745000D01*
X171521429Y-105716429D01*
X171378571Y-105716429D01*
X171292857Y-105745000D01*
X171035714Y-106316429D02*
X171035714Y-105716429D01*
X170692857Y-106316429D01*
X170692857Y-105716429D01*
X174604285Y-105716429D02*
X174404285Y-106316429D01*
X174204285Y-105716429D01*
X174004285Y-106316429D02*
X174004285Y-105916429D01*
X174004285Y-105716429D02*
X174032856Y-105745000D01*
X174004285Y-105773571D01*
X173975713Y-105745000D01*
X174004285Y-105716429D01*
X174004285Y-105773571D01*
X173718571Y-105916429D02*
X173718571Y-106316429D01*
X173718571Y-105973571D02*
X173689999Y-105945000D01*
X173632857Y-105916429D01*
X173547142Y-105916429D01*
X173489999Y-105945000D01*
X173461428Y-106002143D01*
X173461428Y-106316429D01*
X174447142Y-122255000D02*
X174504285Y-122226429D01*
X174589999Y-122226429D01*
X174675714Y-122255000D01*
X174732856Y-122312143D01*
X174761428Y-122369286D01*
X174789999Y-122483571D01*
X174789999Y-122569286D01*
X174761428Y-122683571D01*
X174732856Y-122740714D01*
X174675714Y-122797857D01*
X174589999Y-122826429D01*
X174532856Y-122826429D01*
X174447142Y-122797857D01*
X174418571Y-122769286D01*
X174418571Y-122569286D01*
X174532856Y-122569286D01*
X174161428Y-122826429D02*
X174161428Y-122226429D01*
X173818571Y-122826429D01*
X173818571Y-122226429D01*
X173532857Y-122826429D02*
X173532857Y-122226429D01*
X173390000Y-122226429D01*
X173304285Y-122255000D01*
X173247143Y-122312143D01*
X173218571Y-122369286D01*
X173190000Y-122483571D01*
X173190000Y-122569286D01*
X173218571Y-122683571D01*
X173247143Y-122740714D01*
X173304285Y-122797857D01*
X173390000Y-122826429D01*
X173532857Y-122826429D01*
X172221428Y-122797857D02*
X172135714Y-122826429D01*
X171992857Y-122826429D01*
X171935714Y-122797857D01*
X171907143Y-122769286D01*
X171878571Y-122712143D01*
X171878571Y-122655000D01*
X171907143Y-122597857D01*
X171935714Y-122569286D01*
X171992857Y-122540714D01*
X172107143Y-122512143D01*
X172164285Y-122483571D01*
X172192857Y-122455000D01*
X172221428Y-122397857D01*
X172221428Y-122340714D01*
X172192857Y-122283571D01*
X172164285Y-122255000D01*
X172107143Y-122226429D01*
X171964285Y-122226429D01*
X171878571Y-122255000D01*
X171278571Y-122769286D02*
X171307142Y-122797857D01*
X171392856Y-122826429D01*
X171449999Y-122826429D01*
X171535714Y-122797857D01*
X171592856Y-122740714D01*
X171621428Y-122683571D01*
X171649999Y-122569286D01*
X171649999Y-122483571D01*
X171621428Y-122369286D01*
X171592856Y-122312143D01*
X171535714Y-122255000D01*
X171449999Y-122226429D01*
X171392856Y-122226429D01*
X171307142Y-122255000D01*
X171278571Y-122283571D01*
X171021428Y-122826429D02*
X171021428Y-122226429D01*
X170678571Y-122826429D02*
X170935714Y-122483571D01*
X170678571Y-122226429D02*
X171021428Y-122569286D01*
X169852857Y-122826429D02*
X169852857Y-122226429D01*
X169652857Y-122655000D01*
X169452857Y-122226429D01*
X169452857Y-122826429D01*
X169052857Y-122226429D02*
X168938571Y-122226429D01*
X168881429Y-122255000D01*
X168824286Y-122312143D01*
X168795714Y-122426429D01*
X168795714Y-122626429D01*
X168824286Y-122740714D01*
X168881429Y-122797857D01*
X168938571Y-122826429D01*
X169052857Y-122826429D01*
X169110000Y-122797857D01*
X169167143Y-122740714D01*
X169195714Y-122626429D01*
X169195714Y-122426429D01*
X169167143Y-122312143D01*
X169110000Y-122255000D01*
X169052857Y-122226429D01*
X168567143Y-122797857D02*
X168481429Y-122826429D01*
X168338572Y-122826429D01*
X168281429Y-122797857D01*
X168252858Y-122769286D01*
X168224286Y-122712143D01*
X168224286Y-122655000D01*
X168252858Y-122597857D01*
X168281429Y-122569286D01*
X168338572Y-122540714D01*
X168452858Y-122512143D01*
X168510000Y-122483571D01*
X168538572Y-122455000D01*
X168567143Y-122397857D01*
X168567143Y-122340714D01*
X168538572Y-122283571D01*
X168510000Y-122255000D01*
X168452858Y-122226429D01*
X168310000Y-122226429D01*
X168224286Y-122255000D01*
X167967143Y-122826429D02*
X167967143Y-122226429D01*
X167312857Y-122826429D02*
X167312857Y-122226429D01*
X167112857Y-122655000D01*
X166912857Y-122226429D01*
X166912857Y-122826429D01*
X166627143Y-122826429D02*
X166627143Y-122226429D01*
X166370000Y-122797857D02*
X166284286Y-122826429D01*
X166141429Y-122826429D01*
X166084286Y-122797857D01*
X166055715Y-122769286D01*
X166027143Y-122712143D01*
X166027143Y-122655000D01*
X166055715Y-122597857D01*
X166084286Y-122569286D01*
X166141429Y-122540714D01*
X166255715Y-122512143D01*
X166312857Y-122483571D01*
X166341429Y-122455000D01*
X166370000Y-122397857D01*
X166370000Y-122340714D01*
X166341429Y-122283571D01*
X166312857Y-122255000D01*
X166255715Y-122226429D01*
X166112857Y-122226429D01*
X166027143Y-122255000D01*
X165655714Y-122226429D02*
X165541428Y-122226429D01*
X165484286Y-122255000D01*
X165427143Y-122312143D01*
X165398571Y-122426429D01*
X165398571Y-122626429D01*
X165427143Y-122740714D01*
X165484286Y-122797857D01*
X165541428Y-122826429D01*
X165655714Y-122826429D01*
X165712857Y-122797857D01*
X165770000Y-122740714D01*
X165798571Y-122626429D01*
X165798571Y-122426429D01*
X165770000Y-122312143D01*
X165712857Y-122255000D01*
X165655714Y-122226429D01*
X164444285Y-122826429D02*
X164444285Y-122226429D01*
X163815714Y-122826429D02*
X164015714Y-122540714D01*
X164158571Y-122826429D02*
X164158571Y-122226429D01*
X163929999Y-122226429D01*
X163872857Y-122255000D01*
X163844285Y-122283571D01*
X163815714Y-122340714D01*
X163815714Y-122426429D01*
X163844285Y-122483571D01*
X163872857Y-122512143D01*
X163929999Y-122540714D01*
X164158571Y-122540714D01*
X163158571Y-122883571D02*
X163215714Y-122855000D01*
X163272857Y-122797857D01*
X163358571Y-122712143D01*
X163415714Y-122683571D01*
X163472857Y-122683571D01*
X163444285Y-122826429D02*
X163501428Y-122797857D01*
X163558571Y-122740714D01*
X163587142Y-122626429D01*
X163587142Y-122426429D01*
X163558571Y-122312143D01*
X163501428Y-122255000D01*
X163444285Y-122226429D01*
X163329999Y-122226429D01*
X163272857Y-122255000D01*
X163215714Y-122312143D01*
X163187142Y-122426429D01*
X163187142Y-122626429D01*
X163215714Y-122740714D01*
X163272857Y-122797857D01*
X163329999Y-122826429D01*
X163444285Y-122826429D01*
D13*
X175320000Y-119320000D02*
X175320000Y-121980000D01*
X162560000Y-119320000D02*
X175320000Y-119320000D01*
X162560000Y-121980000D02*
X175320000Y-121980000D01*
X162500000Y-119320000D02*
X162500000Y-121980000D01*
X175320000Y-106620000D02*
X175320000Y-109280000D01*
X162560000Y-106620000D02*
X175320000Y-106620000D01*
X162560000Y-109280000D02*
X175320000Y-109280000D01*
X162500000Y-106620000D02*
X162500000Y-109280000D01*
D12*
X171315000Y-117436000D02*
X170315000Y-117436000D01*
X170315000Y-115736000D02*
X171315000Y-115736000D01*
X170315000Y-111164000D02*
X171315000Y-111164000D01*
X171315000Y-112864000D02*
X170315000Y-112864000D01*
M02*
